<svg xmlns="http://www.w3.org/2000/svg" class="h-full w-full fill-current" viewBox="0 0 100 100" >
<g>
	<path fill-rule="evenodd" clip-rule="evenodd" fill="#474747" d="M71.682,1.735c1.631,0.42,3.136,1.053,4.296,2.353
		c1.403,1.571,1.843,3.434,1.839,5.479c-0.015,8.985-0.006,17.971-0.006,26.955c0,17.939-0.007,35.877,0.008,53.816
		c0.002,2.115-0.431,4.037-1.903,5.645c-1.151,1.256-2.635,1.869-4.233,2.281c-14.454,0-28.908,0-43.363,0
		c-1.631-0.42-3.136-1.053-4.296-2.352c-1.403-1.572-1.842-3.434-1.839-5.48c0.015-8.953,0.006-17.906,0.006-26.861
		c0-17.97,0.007-35.939-0.008-53.909c-0.001-2.115,0.432-4.038,1.904-5.645c1.151-1.257,2.634-1.87,4.233-2.282
		C42.773,1.735,57.228,1.735,71.682,1.735z M74.942,81.298c-0.446,0-0.816,0-1.188,0c-12.662,0-25.325,0-37.987-0.002
		c-0.314,0-0.633,0.023-0.941-0.023c-0.783-0.113-1.27-0.564-1.277-1.375c-0.008-0.812,0.468-1.275,1.249-1.4
		c0.338-0.053,0.689-0.027,1.035-0.027c12.662,0,25.325,0,37.988,0c0.365,0,0.73,0,1.105,0c0-20.92,0-41.708,0-62.522
		c-16.65,0-33.249,0-49.847,0c0,20.859,0,41.646,0,62.526c1.403,0,2.752-0.064,4.089,0.035c0.457,0.033,1.047,0.377,1.275,0.758
		c0.202,0.34,0.159,1.076-0.09,1.367c-0.315,0.365-0.941,0.6-1.45,0.635c-1.27,0.086-2.549,0.029-3.827,0.029
		c0,3.527-0.003,6.918,0.007,10.309c0,0.275,0.072,0.561,0.153,0.828c0.593,1.936,2.177,3,4.487,3.002
		c12.16,0.002,24.32,0.002,36.479,0c1.509,0,3.018,0.029,4.524-0.01c2.345-0.061,4.111-1.643,4.188-3.988
		C75.022,88.114,74.942,84.782,74.942,81.298z M25.068,12.972c16.666,0,33.26,0,49.91,0c0-1.3,0.015-2.523-0.002-3.746
		c-0.041-2.973-1.741-4.659-4.714-4.66C56.755,4.561,43.246,4.563,29.738,4.563c-0.188,0-0.377-0.001-0.565,0.008
		c-2.245,0.111-3.935,1.665-4.085,3.903C24.989,9.942,25.068,11.421,25.068,12.972z"/>
	<path fill-rule="evenodd" clip-rule="evenodd" fill="#474747" d="M45.782,88.413c-0.029-2.309,1.819-4.227,4.125-4.279
		c2.335-0.055,4.282,1.836,4.312,4.188c0.028,2.309-1.819,4.227-4.125,4.279C47.758,92.655,45.812,90.765,45.782,88.413z
		 M51.376,88.401c0.017-0.752-0.578-1.398-1.318-1.432c-0.735-0.035-1.388,0.568-1.428,1.316c-0.042,0.793,0.582,1.473,1.359,1.479
		C50.729,89.772,51.358,89.151,51.376,88.401z"/>
	<path fill-rule="evenodd" clip-rule="evenodd" fill="#474747" d="M52.839,10.217c-0.909-0.001-1.819,0.024-2.727-0.008
		c-0.908-0.033-1.47-0.579-1.487-1.369c-0.019-0.832,0.559-1.422,1.513-1.438c1.787-0.029,3.574-0.027,5.361-0.002
		c0.96,0.015,1.544,0.592,1.536,1.418c-0.007,0.821-0.595,1.367-1.562,1.395C54.596,10.238,53.717,10.219,52.839,10.217z"/>
	<path fill-rule="evenodd" clip-rule="evenodd" fill="#474747" d="M45.713,8.898c-0.046,0.748-0.706,1.346-1.439,1.305
		c-0.786-0.044-1.367-0.734-1.293-1.537c0.069-0.75,0.745-1.322,1.48-1.253C45.212,7.483,45.76,8.134,45.713,8.898z"/>
</g>
</svg>
