<svg xmlns="http://www.w3.org/2000/svg" class="h-full w-full fill-current" viewBox="0 0 100 100" ><g>
	<path fill-rule="evenodd" clip-rule="evenodd" fill="#474747" d="M11.064,38.12c0.421-0.296,0.803-0.722,1.271-0.859
		c0.769-0.228,1.517,0.448,1.567,1.332c0.044,0.72,0.018,1.445,0.018,2.168c0,15.618-0.003,31.237,0.001,46.856
		c0.002,3.669,1.992,6.42,5.325,7.311c0.69,0.186,1.427,0.268,2.141,0.268c25.236,0.011,31.792,0.011,57.026-0.002
		c4.688-0.005,7.656-3.008,7.658-7.676c0.004-13.514,0.002-27.027,0.002-40.54c0-0.252,0.012-0.503-0.002-0.754
		c-0.046-0.801,0.059-1.562,0.93-1.858c0.896-0.305,1.506,0.159,1.935,0.919c0,14.708,0,29.417,0,44.126
		c-0.16,0.563-0.305,1.135-0.487,1.693c-1.401,4.316-5.191,6.964-10,6.964c-25.191,0.003-31.705,0.002-56.897,0.001
		c-0.313,0-0.628-0.003-0.941-0.02c-4.194-0.227-7.768-2.959-9.062-6.943c-0.181-0.559-0.323-1.131-0.483-1.695
		C11.064,72.313,11.064,55.217,11.064,38.12z"/>
	<path fill-rule="evenodd" clip-rule="evenodd" fill="#474747" d="M88.936,40.571c-0.201,0.188-0.384,0.399-0.603,0.559
		c-0.88,0.645-2.066,0.159-2.232-0.918c-0.053-0.338-0.027-0.689-0.027-1.035c0-8.857,0-17.716-0.002-26.574
		c0-4.816-2.916-7.793-7.719-7.796C53.13,4.792,46.587,4.79,21.363,4.798c-4.399,0.001-7.433,3.081-7.44,7.506
		c-0.012,6.471-0.003,12.942-0.003,19.412c0,0.251-0.015,0.504,0.001,0.754c0.056,0.819-0.126,1.543-0.985,1.826
		c-0.861,0.284-1.423-0.223-1.871-0.891c0-7.605,0-15.21,0-22.817c0.172-0.595,0.322-1.197,0.521-1.784
		c1.438-4.28,5.192-6.874,9.965-6.875c25.193-0.002,31.708-0.001,56.9,0c0.312,0,0.628,0.003,0.942,0.019
		c4.194,0.218,7.762,2.951,9.056,6.944c0.183,0.559,0.327,1.13,0.487,1.696C88.936,20.583,88.936,30.577,88.936,40.571z"/>
	<path fill-rule="evenodd" clip-rule="evenodd" fill="#474747" d="M49.97,64.773c-4.393,0-8.786,0.015-13.181-0.02
		c-0.493-0.005-1.106-0.162-1.438-0.482c-0.287-0.279-0.451-0.961-0.314-1.334c0.153-0.416,0.672-0.741,1.1-0.99
		c0.239-0.139,0.615-0.045,0.927-0.045c8.602,0,17.2,0,25.8,0c0.282,0,0.568-0.014,0.846,0.016c0.81,0.086,1.263,0.587,1.302,1.359
		c0.038,0.743-0.39,1.248-1.11,1.438c-0.297,0.08-0.623,0.058-0.936,0.058C58.632,64.775,54.303,64.773,49.97,64.773z"/>
	<g>
		<path fill="#474747" d="M60.947,37.716c-2.479-4.686-5.208-9.35-7.844-13.86c-0.703-1.2-1.404-2.399-2.103-3.6
			c-0.319-0.55-0.77-0.866-1.234-0.866c-0.465,0-0.917,0.319-1.241,0.873c-0.715,1.228-1.434,2.452-2.153,3.677
			c-2.631,4.479-5.352,9.111-7.784,13.783c-2.692,5.173-0.95,12.121,3.883,15.488c2.232,1.555,4.786,2.376,7.387,2.376
			c3.234,0,6.296-1.278,8.618-3.599C62.338,48.131,63.353,42.263,60.947,37.716z M55.916,50.581
			c-1.631,1.429-3.789,2.218-6.076,2.218c-1.985,0-3.898-0.582-5.533-1.684c-3.728-2.51-5.305-7.595-3.517-11.337
			c1.727-3.612,3.685-7.028,5.759-10.645c0.88-1.535,1.769-3.086,2.65-4.67l0.5-0.899l1.858,3.2c0.91,1.567,1.77,3.044,2.617,4.526
			c0.376,0.659,0.758,1.314,1.139,1.969c1.037,1.783,2.111,3.626,3.063,5.5C60.377,42.694,59.365,47.555,55.916,50.581z"/>
	</g>
	<path fill="#474747" d="M80.797,18.817c-0.006-4.698-3.121-7.747-7.814-7.749c-15.467-0.007-30.934-0.007-46.401,0
		c-4.742,0.003-7.806,3.067-7.843,7.828c-0.016,1.938-0.014,43.037,0.004,46.423c0.004,0.938,0.132,1.916,0.419,2.803
		c1.035,3.181,3.813,5.003,7.554,5.012c7.684,0.014,15.369,0.002,23.055,0.002c7.683,0,15.367,0.016,23.052-0.005
		c4.867-0.014,7.969-3.033,7.977-7.812C80.818,49.818,80.822,34.318,80.797,18.817z M21.689,19.035
		c0.002-3.267,1.733-5.011,4.961-5.012c15.434-0.004,30.869-0.004,46.305,0.001c3.078,0,4.884,1.744,4.885,4.786
		c0.014,15.533,0.023,31.065-0.027,46.599c-0.002,0.962-0.327,2.032-0.823,2.859c-0.93,1.557-2.531,1.922-4.272,1.922
		c-15.301-0.014-30.604-0.006-45.906-0.012c-3.426,0-5.114-1.723-5.117-5.176"/>
	<g>
		<path fill-rule="evenodd" clip-rule="evenodd" fill="#474747" d="M41.442,87.006c-2.721-0.021-4.856-2.209-4.833-4.95
			c0.024-2.659,2.221-4.825,4.888-4.819c2.696,0.007,4.929,2.244,4.905,4.921C46.382,84.853,44.154,87.03,41.442,87.006z
			 M43.342,82.168c0.012-1.045-0.777-1.889-1.789-1.913c-1.075-0.024-1.898,0.798-1.893,1.895c0.007,1.033,0.828,1.884,1.828,1.896
			C42.441,84.057,43.331,83.154,43.342,82.168z"/>
		<path fill-rule="evenodd" clip-rule="evenodd" fill="#474747" d="M58.431,87.006c-2.721-0.021-4.857-2.209-4.834-4.95
			c0.025-2.659,2.221-4.825,4.889-4.819c2.694,0.007,4.928,2.244,4.904,4.921C63.37,84.853,61.142,87.03,58.431,87.006z
			 M60.329,82.168c0.012-1.045-0.777-1.889-1.789-1.913c-1.076-0.024-1.899,0.798-1.893,1.895c0.006,1.033,0.828,1.884,1.828,1.896
			C59.429,84.057,60.319,83.154,60.329,82.168z"/>
	</g>
</g>
</svg>
