<svg xmlns="http://www.w3.org/2000/svg" class="h-full w-full fill-current" viewBox="0 0 100 100" >
<g>
	<path fill-rule="evenodd" clip-rule="evenodd" fill="#474747" d="M49.971,51.449c-4.393,0-8.787,0.015-13.182-0.02
		c-0.492-0.005-1.105-0.162-1.438-0.481c-0.287-0.28-0.451-0.961-0.314-1.334c0.152-0.416,0.672-0.742,1.1-0.99
		c0.238-0.139,0.615-0.045,0.926-0.045c8.602-0.001,17.2-0.001,25.8,0c0.282,0,0.568-0.014,0.846,0.015
		c0.81,0.086,1.263,0.587,1.302,1.36c0.038,0.743-0.39,1.248-1.11,1.437c-0.297,0.08-0.623,0.058-0.936,0.058
		C58.632,51.45,54.303,51.449,49.971,51.449z"/>
	<path fill-rule="evenodd" clip-rule="evenodd" fill="#474747" d="M51.449,50.029c0,4.393,0.015,8.787-0.02,13.182
		c-0.005,0.492-0.162,1.105-0.482,1.438c-0.279,0.287-0.961,0.451-1.334,0.314c-0.416-0.152-0.74-0.672-0.99-1.1
		c-0.139-0.238-0.045-0.615-0.045-0.926c0-8.602,0-17.2,0-25.8c0-0.282-0.014-0.568,0.016-0.846c0.086-0.81,0.588-1.263,1.359-1.302
		c0.744-0.038,1.248,0.39,1.438,1.11c0.08,0.297,0.058,0.623,0.058,0.936C51.45,41.368,51.449,45.697,51.449,50.029z"/>
</g>
</svg>
