<svg xmlns="http://www.w3.org/2000/svg" class="h-full w-full fill-current" viewBox="0 0 100 100" >
	<g>
	<path fill-rule="evenodd" clip-rule="evenodd" fill="#474747" d="M40.894,98.672c-1.844-0.248-3.699-0.436-5.53-0.754
		c-7.661-1.338-14.577-4.357-20.649-9.249c-0.248-0.199-0.473-0.439-0.748-0.585c-1.936-1.016-2.178-2.957-1.479-4.854
		c0.873-2.364,2.424-4.293,4.078-6.135c5.066-5.639,10.933-10.373,17.003-14.859c11.126-8.223,22.842-15.491,35.338-21.457
		c5.143-2.455,10.359-4.778,15.998-5.85c1.644-0.312,3.4-0.282,5.076-0.108c1.502,0.156,2.342,1.225,2.723,2.77
		c1.13,4.581,1.71,9.202,1.467,13.927c-0.461,8.913-3.191,17.088-8.192,24.443c-8.608,12.662-20.587,20.024-35.716,22.276
		c-1.216,0.182-2.442,0.292-3.665,0.435C44.696,98.672,42.795,98.672,40.894,98.672z M91.013,42.577
		c-2.798,3.965-6.134,7.203-9.664,10.238C67.999,64.293,53.3,73.728,37.564,81.569c-5.214,2.599-10.548,4.927-16.22,6.369
		c-0.768,0.195-1.547,0.342-2.413,0.531c13.106,9.23,33.148,10.708,49.87,0.468C86.226,78.268,93.818,58.946,91.013,42.577z
		 M16.956,85.985c0.504-0.052,1.012-0.077,1.51-0.157c3.552-0.58,6.936-1.738,10.225-3.147c18.141-7.784,34.626-18.257,49.778-30.86
		c3.534-2.94,6.914-6.065,9.657-9.787c0.759-1.029,1.343-2.211,1.858-3.388c0.361-0.824,0.035-1.306-0.863-1.368
		c-1.002-0.069-2.035-0.079-3.021,0.088c-4.496,0.765-8.693,2.469-12.826,4.312c-12.422,5.539-23.979,12.574-35.053,20.427
		c-6.311,4.477-12.443,9.19-17.813,14.786c-1.871,1.952-3.555,4.128-5.045,6.384C14.059,85.246,14.612,85.993,16.956,85.985z"/>
	<path fill-rule="evenodd" clip-rule="evenodd" fill="#474747" d="M26.444,1.328c0.258,0.231,0.553,0.431,0.766,0.696
		c5.094,6.35,10.104,12.76,14.188,19.828c1.872,3.238,3.646,6.546,4.423,10.238c1.242,5.916-0.332,11.248-4.111,15.792
		c-5.519,6.635-12.722,9.063-21.031,6.765c-8.422-2.331-13.273-8.212-14.717-16.834c-0.574-3.426,0.238-6.663,1.58-9.799
		c2.369-5.536,5.648-10.536,9.182-15.369c2.596-3.552,5.332-7.002,8.012-10.491c0.227-0.296,0.504-0.552,0.758-0.826
		C25.811,1.328,26.128,1.328,26.444,1.328z M26.013,4.754C21.95,9.873,17.956,14.92,14.639,20.438
		c-1.837,3.054-3.456,6.252-4.989,9.474c-1.192,2.503-1.551,5.22-1.023,7.98c1.37,7.168,5.463,12.105,12.479,14.153
		c7.056,2.059,13.256,0.158,18.155-5.32c3.463-3.872,5.089-8.537,4.024-13.706c-0.533-2.587-1.677-5.111-2.898-7.482
		c-3.643-7.07-8.488-13.346-13.393-19.568C26.685,5.576,26.366,5.191,26.013,4.754z"/>
	<path fill-rule="evenodd" clip-rule="evenodd" fill="#474747" d="M25.201,47.765c-6.18-0.233-11.614-5.949-11.534-12.144
		c0.014-1.099,0.5-1.714,1.34-1.693c0.805,0.02,1.313,0.596,1.285,1.665c-0.123,4.581,4.248,9.622,9.417,9.553
		c1.053-0.015,1.637,0.536,1.626,1.33c-0.01,0.795-0.633,1.279-1.659,1.288C25.517,47.766,25.359,47.765,25.201,47.765z"/>
</g>
</svg>
