<svg xmlns="http://www.w3.org/2000/svg" class="h-full w-full fill-current" viewBox="0 0 100 100" >
<g>
	<g>
		<path fill="#474747" d="M50.061,88.291c-13.126,0-23.805-10.679-23.805-23.805s10.679-23.806,23.805-23.806
			s23.805,10.68,23.805,23.806S63.187,88.291,50.061,88.291z M50.061,43.686c-11.469,0-20.8,9.332-20.8,20.8s9.331,20.8,20.8,20.8
			s20.8-9.331,20.8-20.8S61.529,43.686,50.061,43.686z"/>
	</g>
	<g>
		<path fill="#474747" d="M50.557,98.673c-18.916,0-34.313-15.336-34.313-34.187C16.244,55.357,20,46.812,26,40.35V28.725
			c0-4.6,3.899-7.725,9.676-7.725H64.9c5.289,0,8.1,2.766,8.1,7.725v10.833c7,6.341,11.255,15.385,11.255,24.929
			C84.255,83.337,69.167,98.673,50.557,98.673z M35.676,24C34.565,24,29,24.266,29,28.725v12.872l-0.435,0.441
			c-6.009,5.943-9.313,13.915-9.313,22.449c0,17.193,14.043,31.182,31.302,31.182c17.24,0,30.746-13.697,30.746-31.182
			c0-9.025-3.84-17.23-10.726-23.102L70,40.934V28.725C70,25.485,68.493,24,64.9,24H35.676z"/>
	</g>
	<g>
		<path fill-rule="evenodd" clip-rule="evenodd" fill="#474747" d="M49.853,1.773c6.31,0.084,11.792,2.241,16.404,6.569
			c0.132,0.122,0.258,0.248,0.379,0.38c0.549,0.605,0.552,1.39,0.01,1.92c-0.538,0.527-1.315,0.51-1.931-0.011
			C63.761,9.82,62.847,8.95,61.824,8.24c-4.28-2.975-9.057-4.18-14.229-3.644c-4.842,0.502-9.031,2.494-12.524,5.906
			c-0.458,0.445-0.956,0.65-1.56,0.453c-0.538-0.174-0.929-0.588-0.873-1.146c0.041-0.432,0.248-0.938,0.55-1.239
			c2.845-2.832,6.221-4.784,10.077-5.887C45.414,2.068,47.61,1.75,49.853,1.773z"/>
	</g>
	<g>
		<path fill-rule="evenodd" clip-rule="evenodd" fill="#474747" d="M49.851,8.719c4.429,0.043,8.25,1.588,11.455,4.65
			c0.636,0.612,0.705,1.453,0.188,2.017c-0.537,0.589-1.398,0.576-2.056-0.05c-3.12-2.97-6.835-4.263-11.11-3.829
			c-2.994,0.305-5.598,1.541-7.814,3.587c-0.287,0.264-0.607,0.538-0.961,0.667c-0.571,0.208-1.196-0.08-1.495-0.575
			c-0.352-0.583-0.274-1.197,0.257-1.731c1.373-1.381,2.953-2.468,4.724-3.271C45.203,9.205,47.469,8.698,49.851,8.719z"/>
	</g>
</g>
</svg>
