<svg xmlns="http://www.w3.org/2000/svg" class="h-full w-full fill-current" viewBox="0 0 100 100" >
<g>
	<path fill="#474747" d="M93.211,27.889c0,14.741,0,29.481,0,44.223c-0.053,0.245-0.121,0.487-0.158,0.733
		c-1.391,9.457-6.582,15.864-15.537,19.146c-1.721,0.63-3.6,0.824-5.404,1.219c-14.742,0-29.482,0-44.224,0
		c-0.214-0.05-0.428-0.124-0.646-0.147c-9.222-0.968-17.09-7.614-19.579-16.601c-0.394-1.422-0.587-2.898-0.872-4.351
		c0-14.741,0-29.481,0-44.223c0.054-0.269,0.121-0.535,0.161-0.806c1.371-9.214,6.394-15.558,15.071-18.905
		c1.857-0.716,3.906-0.938,5.865-1.388c14.742,0,29.482,0,44.224,0c0.217,0.05,0.43,0.124,0.648,0.146
		c9.244,0.984,17.088,7.61,19.576,16.6C92.729,24.958,92.924,26.437,93.211,27.889z M49.999,9.322c-6.609,0-13.22-0.01-19.829,0.009
		c-1.151,0.003-2.314,0.041-3.448,0.22C16.55,11.162,9.333,19.629,9.325,29.958C9.312,43.318,9.316,56.679,9.332,70.04
		c0.001,1.093,0.048,2.201,0.226,3.277c1.701,10.262,10.095,17.354,20.527,17.359c13.276,0.008,26.554,0.008,39.83-0.008
		c1.121-0.002,2.258-0.046,3.361-0.223c10.164-1.627,17.381-10.051,17.398-20.322c0.02-13.416,0.018-26.833-0.014-40.251
		c-0.006-1.424-0.133-2.876-0.434-4.267c-2.078-9.668-10.258-16.26-20.145-16.282C63.389,9.309,56.693,9.322,49.999,9.322z"/>
	<path fill-rule="evenodd" clip-rule="evenodd" fill="#474747" d="M50,76.595c-6.584,0-13.166,0.01-19.748-0.003
		c-3.204-0.007-5.582-1.568-6.468-4.292c-0.246-0.76-0.351-1.598-0.354-2.4c-0.029-5.625-0.022-11.252-0.004-16.879
		c0.002-0.428,0.066-0.96,0.319-1.254c0.243-0.279,0.806-0.477,1.168-0.406c0.358,0.07,0.732,0.469,0.932,0.82
		c0.162,0.285,0.099,0.711,0.1,1.075c0.005,5.456,0.001,10.914,0.004,16.372c0.002,2.959,1.448,4.433,4.383,4.433
		c13.107,0.006,26.217-0.002,39.325,0.011c1.49,0,2.861-0.313,3.658-1.646c0.426-0.709,0.703-1.625,0.705-2.449
		c0.043-13.305,0.037-26.61,0.025-39.916c-0.002-2.605-1.547-4.099-4.186-4.1c-13.221-0.004-26.441-0.003-39.662,0
		c-2.766,0-4.245,1.495-4.247,4.293c-0.007,5.401-0.003,10.802-0.003,16.203c0,0.253,0.007,0.506-0.003,0.759
		c-0.035,0.957-0.473,1.48-1.239,1.494c-0.804,0.014-1.283-0.522-1.286-1.529c-0.011-4.022-0.005-8.044-0.005-12.067
		c0-1.66-0.012-3.319,0.002-4.979c0.032-4.078,2.656-6.703,6.719-6.705c13.249-0.005,26.498-0.006,39.748,0
		c4.02,0.002,6.688,2.613,6.693,6.638c0.021,13.278,0.02,26.556,0.002,39.833c-0.006,4.092-2.662,6.679-6.832,6.69
		C63.164,76.608,56.582,76.595,50,76.595z"/>
	<path fill-rule="evenodd" clip-rule="evenodd" fill="#474747" d="M60.145,58.886c0.725,0.01,1.256,0.574,1.225,1.301
		c-0.031,0.688-0.568,1.191-1.262,1.182c-0.725-0.01-1.256-0.574-1.225-1.301C58.914,59.38,59.451,58.876,60.145,58.886z"/>
	<path fill-rule="evenodd" clip-rule="evenodd" fill="#474747" d="M56.305,60.141c-0.008,0.724-0.57,1.257-1.297,1.228
		c-0.689-0.027-1.195-0.562-1.188-1.255c0.008-0.723,0.57-1.257,1.297-1.228C55.805,58.913,56.312,59.447,56.305,60.141z"/>
	<path fill-rule="evenodd" clip-rule="evenodd" fill="#474747" d="M49.997,58.886c0.693,0,1.224,0.508,1.246,1.197
		c0.021,0.726-0.518,1.285-1.242,1.285c-0.725,0.002-1.265-0.557-1.244-1.282C48.778,59.397,49.304,58.886,49.997,58.886z"/>
	<path fill-rule="evenodd" clip-rule="evenodd" fill="#474747" d="M46.177,60.084c0.021,0.694-0.474,1.241-1.158,1.282
		c-0.727,0.045-1.304-0.477-1.326-1.198c-0.022-0.725,0.517-1.282,1.241-1.282C45.628,58.886,46.157,59.396,46.177,60.084z"/>
	<path fill-rule="evenodd" clip-rule="evenodd" fill="#474747" d="M41.114,60.154c-0.015,0.722-0.585,1.251-1.312,1.214
		c-0.687-0.035-1.187-0.576-1.173-1.27c0.015-0.721,0.585-1.249,1.311-1.213C40.628,58.921,41.128,59.461,41.114,60.154z"/>
	<path fill-rule="evenodd" clip-rule="evenodd" fill="#474747" d="M33.566,60.058c0.036-0.719,0.623-1.226,1.353-1.167
		c0.685,0.055,1.167,0.61,1.131,1.306c-0.035,0.686-0.576,1.186-1.269,1.172C34.057,61.354,33.529,60.784,33.566,60.058z"/>
	<path fill-rule="evenodd" clip-rule="evenodd" fill="#474747" d="M29.731,58.886c0.692-0.006,1.228,0.5,1.255,1.187
		c0.029,0.726-0.506,1.29-1.229,1.296c-0.726,0.006-1.271-0.546-1.255-1.271C28.517,59.407,29.038,58.892,29.731,58.886z"/>
	<path fill-rule="evenodd" clip-rule="evenodd" fill="#474747" d="M71.496,55.064c-0.002,0.725-0.559,1.263-1.285,1.241
		c-0.691-0.023-1.201-0.553-1.199-1.244c0-0.725,0.557-1.262,1.285-1.24C70.986,53.843,71.496,54.37,71.496,55.064z"/>
	<path fill-rule="evenodd" clip-rule="evenodd" fill="#474747" d="M66.432,55.086c-0.012,0.724-0.58,1.253-1.307,1.22
		c-0.688-0.033-1.189-0.572-1.178-1.266c0.012-0.723,0.58-1.252,1.307-1.219C65.941,53.854,66.445,54.392,66.432,55.086z"/>
	<path fill-rule="evenodd" clip-rule="evenodd" fill="#474747" d="M61.369,55.103c-0.021,0.721-0.598,1.244-1.324,1.201
		c-0.686-0.041-1.18-0.588-1.162-1.279c0.021-0.721,0.598-1.244,1.326-1.201C60.895,53.864,61.389,54.409,61.369,55.103z"/>
	<path fill-rule="evenodd" clip-rule="evenodd" fill="#474747" d="M56.305,55.062c0,0.692-0.51,1.222-1.199,1.243
		c-0.729,0.021-1.285-0.519-1.285-1.243c0-0.726,0.555-1.263,1.283-1.241C55.795,53.843,56.305,54.37,56.305,55.062z"/>
	<path fill-rule="evenodd" clip-rule="evenodd" fill="#474747" d="M51.242,55.133c-0.037,0.719-0.627,1.227-1.355,1.167
		c-0.686-0.057-1.165-0.611-1.131-1.308c0.037-0.717,0.625-1.225,1.354-1.165C50.796,53.883,51.277,54.438,51.242,55.133z"/>
	<path fill-rule="evenodd" clip-rule="evenodd" fill="#474747" d="M46.177,55.071c-0.005,0.725-0.565,1.26-1.293,1.234
		c-0.688-0.026-1.196-0.559-1.191-1.252c0.005-0.723,0.565-1.258,1.293-1.232C45.675,53.848,46.182,54.378,46.177,55.071z"/>
	<path fill-rule="evenodd" clip-rule="evenodd" fill="#474747" d="M39.859,56.306c-0.725-0.008-1.258-0.57-1.229-1.297
		c0.026-0.688,0.562-1.193,1.254-1.188c0.725,0.008,1.259,0.57,1.23,1.297C41.085,55.806,40.552,56.312,39.859,56.306z"/>
	<path fill-rule="evenodd" clip-rule="evenodd" fill="#474747" d="M34.806,56.306c-0.725-0.002-1.263-0.56-1.241-1.286
		c0.022-0.688,0.551-1.198,1.244-1.198c0.725,0,1.264,0.56,1.24,1.284C36.029,55.795,35.499,56.306,34.806,56.306z"/>
	<path fill-rule="evenodd" clip-rule="evenodd" fill="#474747" d="M30.986,55.094c-0.017,0.722-0.588,1.249-1.315,1.21
		c-0.686-0.035-1.185-0.578-1.169-1.271c0.016-0.721,0.588-1.247,1.315-1.211C30.502,53.858,31.001,54.401,30.986,55.094z"/>
	<path fill-rule="evenodd" clip-rule="evenodd" fill="#474747" d="M71.496,50.034c-0.02,0.722-0.594,1.247-1.318,1.206
		c-0.686-0.038-1.184-0.582-1.166-1.275c0.018-0.72,0.592-1.245,1.318-1.205C71.018,48.797,71.514,49.341,71.496,50.034z"/>
	<path fill-rule="evenodd" clip-rule="evenodd" fill="#474747" d="M65.186,48.758c0.693-0.002,1.225,0.506,1.248,1.195
		c0.023,0.726-0.516,1.286-1.24,1.288c-0.723,0.002-1.266-0.554-1.246-1.279C63.967,49.272,64.492,48.761,65.186,48.758z"/>
	<path fill-rule="evenodd" clip-rule="evenodd" fill="#474747" d="M61.369,50.069c-0.037,0.718-0.627,1.226-1.355,1.166
		c-0.686-0.057-1.164-0.611-1.129-1.306c0.035-0.718,0.623-1.225,1.352-1.166C60.924,48.819,61.404,49.375,61.369,50.069z"/>
	<path fill-rule="evenodd" clip-rule="evenodd" fill="#474747" d="M69.012,70.282c-0.016-0.691,0.486-1.234,1.172-1.27
		c0.727-0.036,1.299,0.491,1.312,1.213c0.014,0.693-0.484,1.234-1.174,1.27C69.598,71.532,69.027,71.005,69.012,70.282z"/>
	<path fill-rule="evenodd" clip-rule="evenodd" fill="#474747" d="M66.432,70.251c0.002,0.692-0.508,1.223-1.195,1.244
		c-0.729,0.023-1.287-0.514-1.289-1.238s0.553-1.264,1.283-1.244C65.92,69.033,66.43,69.558,66.432,70.251z"/>
	<path fill-rule="evenodd" clip-rule="evenodd" fill="#474747" d="M61.369,70.226c0.014,0.693-0.486,1.234-1.172,1.27
		c-0.727,0.037-1.297-0.49-1.312-1.212c-0.016-0.726,0.529-1.276,1.254-1.271C60.834,69.019,61.354,69.534,61.369,70.226z"/>
	<path fill-rule="evenodd" clip-rule="evenodd" fill="#474747" d="M55.029,71.495c-0.723-0.018-1.248-0.59-1.209-1.316
		c0.037-0.688,0.582-1.183,1.275-1.166c0.725,0.019,1.248,0.59,1.209,1.316C56.266,71.017,55.721,71.513,55.029,71.495z"/>
	<path fill-rule="evenodd" clip-rule="evenodd" fill="#474747" d="M51.242,70.259c-0.004,0.725-0.563,1.261-1.29,1.236
		c-0.688-0.022-1.199-0.553-1.196-1.245c0.002-0.724,0.562-1.261,1.289-1.237C50.735,69.036,51.242,69.565,51.242,70.259z"/>
	<path fill-rule="evenodd" clip-rule="evenodd" fill="#474747" d="M44.977,69.013c0.69,0.021,1.2,0.549,1.2,1.241
		c0,0.725-0.558,1.265-1.284,1.241c-0.72-0.021-1.243-0.598-1.198-1.325C43.737,69.485,44.283,68.991,44.977,69.013z"/>
	<path fill-rule="evenodd" clip-rule="evenodd" fill="#474747" d="M39.894,71.495c-0.727,0.013-1.275-0.535-1.265-1.26
		c0.009-0.692,0.527-1.211,1.219-1.223c0.729-0.011,1.276,0.535,1.266,1.262C41.104,70.967,40.586,71.484,39.894,71.495z"/>
	<path fill-rule="evenodd" clip-rule="evenodd" fill="#474747" d="M36.049,70.289c-0.018,0.722-0.592,1.245-1.318,1.206
		c-0.686-0.039-1.183-0.584-1.166-1.276c0.019-0.72,0.593-1.245,1.319-1.206C35.571,69.052,36.068,69.596,36.049,70.289z"/>
	<path fill-rule="evenodd" clip-rule="evenodd" fill="#474747" d="M28.501,70.185c0.036-0.718,0.624-1.225,1.353-1.166
		c0.687,0.055,1.168,0.61,1.132,1.305c-0.034,0.686-0.576,1.186-1.269,1.172C28.994,71.481,28.465,70.911,28.501,70.185z"/>
	<path fill-rule="evenodd" clip-rule="evenodd" fill="#474747" d="M71.496,65.204c-0.008,0.723-0.57,1.258-1.297,1.229
		c-0.689-0.029-1.195-0.562-1.188-1.256c0.008-0.723,0.57-1.256,1.297-1.229C70.996,63.978,71.504,64.511,71.496,65.204z"/>
	<path fill-rule="evenodd" clip-rule="evenodd" fill="#474747" d="M66.432,65.191c0,0.725-0.559,1.263-1.285,1.241
		c-0.689-0.023-1.199-0.552-1.199-1.244c0.002-0.724,0.559-1.262,1.287-1.24C65.924,63.972,66.434,64.499,66.432,65.191z"/>
	<path fill-rule="evenodd" clip-rule="evenodd" fill="#474747" d="M60.146,63.948c0.725,0.013,1.256,0.58,1.223,1.305
		c-0.033,0.688-0.57,1.191-1.266,1.18c-0.723-0.012-1.252-0.579-1.221-1.307C58.916,64.439,59.455,63.938,60.146,63.948z"/>
	<path fill-rule="evenodd" clip-rule="evenodd" fill="#474747" d="M56.305,65.163c0.014,0.693-0.486,1.234-1.174,1.27
		c-0.725,0.035-1.295-0.494-1.311-1.215c-0.016-0.725,0.531-1.275,1.256-1.27C55.77,63.956,56.291,64.472,56.305,65.163z"/>
	<path fill-rule="evenodd" clip-rule="evenodd" fill="#474747" d="M51.242,65.189c0,0.725-0.559,1.265-1.285,1.243
		c-0.689-0.021-1.201-0.549-1.201-1.242c0-0.726,0.556-1.262,1.284-1.242C50.731,63.97,51.242,64.497,51.242,65.189z"/>
	<path fill-rule="evenodd" clip-rule="evenodd" fill="#474747" d="M44.961,66.433c-0.726,0.014-1.277-0.532-1.269-1.258
		c0.008-0.691,0.523-1.213,1.216-1.227c0.728-0.014,1.277,0.532,1.269,1.257C46.169,65.899,45.655,66.419,44.961,66.433z"/>
	<path fill-rule="evenodd" clip-rule="evenodd" fill="#474747" d="M39.833,66.433c-0.722-0.021-1.245-0.596-1.202-1.322
		c0.04-0.687,0.583-1.18,1.278-1.162c0.722,0.021,1.245,0.596,1.202,1.322C41.072,65.957,40.527,66.451,39.833,66.433z"/>
	<path fill-rule="evenodd" clip-rule="evenodd" fill="#474747" d="M36.049,65.163c0.014,0.694-0.485,1.234-1.174,1.27
		c-0.725,0.035-1.296-0.494-1.31-1.217c-0.015-0.725,0.531-1.274,1.257-1.268C35.516,63.958,36.037,64.472,36.049,65.163z"/>
	<path fill-rule="evenodd" clip-rule="evenodd" fill="#474747" d="M30.986,65.261c-0.036,0.719-0.626,1.226-1.354,1.166
		c-0.686-0.057-1.165-0.611-1.13-1.307c0.036-0.718,0.624-1.225,1.354-1.166C30.541,64.01,31.022,64.566,30.986,65.261z"/>
	<path fill-rule="evenodd" clip-rule="evenodd" fill="#474747" d="M70.223,61.368c-0.723-0.017-1.25-0.588-1.211-1.312
		c0.035-0.688,0.578-1.186,1.271-1.17c0.725,0.016,1.25,0.586,1.213,1.313C71.459,60.886,70.916,61.384,70.223,61.368z"/>
	<path fill-rule="evenodd" clip-rule="evenodd" fill="#474747" d="M65.211,58.886c0.725,0.011,1.254,0.578,1.221,1.305
		c-0.031,0.686-0.57,1.189-1.264,1.178c-0.723-0.012-1.254-0.578-1.221-1.306C63.98,59.376,64.518,58.875,65.211,58.886z"/>
	<path fill-rule="evenodd" clip-rule="evenodd" fill="#474747" d="M39.833,41.113c-0.722-0.021-1.245-0.595-1.202-1.321
		c0.04-0.686,0.583-1.18,1.278-1.161c0.722,0.02,1.245,0.594,1.202,1.32C41.072,40.638,40.527,41.133,39.833,41.113z"/>
	<path fill-rule="evenodd" clip-rule="evenodd" fill="#474747" d="M36.049,39.887c-0.007,0.723-0.571,1.257-1.297,1.227
		c-0.689-0.028-1.195-0.563-1.188-1.256c0.008-0.723,0.572-1.256,1.299-1.226C35.553,38.659,36.057,39.193,36.049,39.887z"/>
	<path fill-rule="evenodd" clip-rule="evenodd" fill="#474747" d="M30.986,39.906c-0.019,0.722-0.593,1.247-1.318,1.206
		c-0.686-0.039-1.184-0.582-1.166-1.275c0.019-0.72,0.593-1.245,1.319-1.205C30.507,38.669,31.004,39.213,30.986,39.906z"/>
	<path fill-rule="evenodd" clip-rule="evenodd" fill="#474747" d="M71.496,34.843c-0.02,0.722-0.594,1.247-1.318,1.206
		c-0.686-0.039-1.184-0.582-1.166-1.276c0.018-0.72,0.592-1.245,1.318-1.205C71.018,33.605,71.514,34.149,71.496,34.843z"/>
	<path fill-rule="evenodd" clip-rule="evenodd" fill="#474747" d="M65.156,33.567c0.727-0.019,1.279,0.522,1.275,1.248
		c-0.004,0.693-0.516,1.217-1.207,1.234c-0.727,0.019-1.281-0.523-1.277-1.248C63.951,34.109,64.463,33.584,65.156,33.567z"/>
	<path fill-rule="evenodd" clip-rule="evenodd" fill="#474747" d="M61.369,34.779c0.014,0.693-0.486,1.236-1.172,1.27
		c-0.727,0.038-1.297-0.49-1.312-1.212c-0.016-0.725,0.529-1.276,1.254-1.27C60.834,33.574,61.354,34.088,61.369,34.779z"/>
	<path fill-rule="evenodd" clip-rule="evenodd" fill="#474747" d="M56.305,34.832c-0.012,0.723-0.58,1.252-1.307,1.218
		c-0.688-0.032-1.189-0.571-1.178-1.264c0.012-0.722,0.58-1.251,1.307-1.218C55.814,33.6,56.316,34.138,56.305,34.832z"/>
	<path fill-rule="evenodd" clip-rule="evenodd" fill="#474747" d="M48.756,34.836c-0.015-0.692,0.486-1.234,1.172-1.269
		c0.728-0.037,1.298,0.49,1.314,1.212c0.014,0.693-0.487,1.235-1.173,1.27C49.342,36.087,48.773,35.559,48.756,34.836z"/>
	<path fill-rule="evenodd" clip-rule="evenodd" fill="#474747" d="M46.177,34.79c0.009,0.693-0.493,1.23-1.182,1.26
		c-0.727,0.032-1.293-0.5-1.303-1.223c-0.011-0.726,0.538-1.271,1.266-1.259C45.652,33.579,46.168,34.097,46.177,34.79z"/>
	<path fill-rule="evenodd" clip-rule="evenodd" fill="#474747" d="M39.833,33.567c0.727-0.021,1.283,0.519,1.281,1.243
		c-0.002,0.693-0.514,1.22-1.203,1.239c-0.727,0.021-1.282-0.519-1.281-1.244C38.63,34.114,39.142,33.587,39.833,33.567z"/>
	<path fill-rule="evenodd" clip-rule="evenodd" fill="#474747" d="M34.795,36.049c-0.724-0.006-1.259-0.569-1.23-1.295
		c0.027-0.688,0.562-1.193,1.254-1.187c0.726,0.006,1.259,0.569,1.23,1.295C36.023,35.551,35.488,36.056,34.795,36.049z"/>
	<path fill-rule="evenodd" clip-rule="evenodd" fill="#474747" d="M30.986,34.821c-0.007,0.724-0.57,1.258-1.297,1.228
		c-0.688-0.027-1.194-0.562-1.188-1.255c0.008-0.723,0.571-1.256,1.297-1.227C30.487,33.594,30.993,34.129,30.986,34.821z"/>
	<path fill-rule="evenodd" clip-rule="evenodd" fill="#474747" d="M69.012,29.772c-0.016-0.692,0.486-1.234,1.172-1.269
		c0.727-0.037,1.299,0.49,1.312,1.212c0.014,0.693-0.484,1.236-1.174,1.27C69.598,31.023,69.027,30.495,69.012,29.772z"/>
	<path fill-rule="evenodd" clip-rule="evenodd" fill="#474747" d="M65.189,30.986c-0.725-0.001-1.264-0.559-1.242-1.285
		c0.023-0.688,0.551-1.198,1.244-1.197c0.725,0,1.264,0.558,1.24,1.284C66.412,30.477,65.881,30.987,65.189,30.986z"/>
	<path fill-rule="evenodd" clip-rule="evenodd" fill="#474747" d="M60.057,30.986c-0.719-0.036-1.227-0.624-1.168-1.352
		c0.057-0.684,0.611-1.164,1.305-1.13c0.721,0.035,1.23,0.624,1.17,1.351C61.307,30.541,60.752,31.021,60.057,30.986z"/>
	<path fill-rule="evenodd" clip-rule="evenodd" fill="#474747" d="M54.992,30.986c-0.717-0.036-1.225-0.624-1.166-1.352
		c0.055-0.684,0.611-1.164,1.305-1.13c0.719,0.035,1.229,0.624,1.17,1.351C56.244,30.541,55.689,31.021,54.992,30.986z"/>
	<path fill-rule="evenodd" clip-rule="evenodd" fill="#474747" d="M51.242,29.706c0.02,0.693-0.477,1.24-1.163,1.279
		c-0.728,0.042-1.302-0.481-1.323-1.201c-0.021-0.726,0.521-1.281,1.246-1.279C50.695,28.505,51.223,29.016,51.242,29.706z"/>
	<path fill-rule="evenodd" clip-rule="evenodd" fill="#474747" d="M46.177,29.715c0.015,0.693-0.485,1.236-1.171,1.271
		c-0.728,0.037-1.298-0.49-1.313-1.213c-0.016-0.725,0.529-1.276,1.255-1.269C45.641,28.51,46.164,29.024,46.177,29.715z"/>
	<path fill-rule="evenodd" clip-rule="evenodd" fill="#474747" d="M39.84,28.504c0.728-0.016,1.28,0.527,1.273,1.252
		c-0.006,0.693-0.521,1.214-1.212,1.229c-0.727,0.016-1.278-0.529-1.272-1.253C38.635,29.041,39.15,28.519,39.84,28.504z"/>
	<path fill-rule="evenodd" clip-rule="evenodd" fill="#474747" d="M36.049,29.775c-0.016,0.723-0.589,1.249-1.314,1.211
		c-0.686-0.037-1.186-0.579-1.17-1.272c0.017-0.721,0.589-1.248,1.315-1.209C35.567,28.54,36.066,29.082,36.049,29.775z"/>
	<path fill-rule="evenodd" clip-rule="evenodd" fill="#474747" d="M29.731,28.504c0.692-0.007,1.228,0.499,1.255,1.187
		c0.029,0.726-0.506,1.289-1.229,1.295c-0.726,0.007-1.271-0.545-1.255-1.271C28.517,29.025,29.038,28.51,29.731,28.504z"/>
	<path fill-rule="evenodd" clip-rule="evenodd" fill="#474747" d="M55.023,51.241c-0.721-0.021-1.244-0.596-1.201-1.322
		c0.039-0.686,0.584-1.18,1.279-1.161c0.723,0.02,1.244,0.594,1.201,1.321C56.264,50.766,55.719,51.261,55.023,51.241z"/>
	<path fill-rule="evenodd" clip-rule="evenodd" fill="#474747" d="M49.996,51.241c-0.725-0.003-1.263-0.562-1.239-1.288
		c0.023-0.688,0.553-1.197,1.246-1.195c0.726,0.002,1.263,0.561,1.24,1.286C51.219,50.734,50.688,51.243,49.996,51.241z"/>
	<path fill-rule="evenodd" clip-rule="evenodd" fill="#474747" d="M46.177,49.985c0.007,0.693-0.499,1.229-1.187,1.256
		c-0.727,0.029-1.29-0.505-1.298-1.228c-0.009-0.725,0.543-1.27,1.271-1.255C45.656,48.772,46.17,49.292,46.177,49.985z"/>
	<path fill-rule="evenodd" clip-rule="evenodd" fill="#474747" d="M41.114,50.003c-0.002,0.725-0.562,1.262-1.288,1.238
		c-0.688-0.023-1.199-0.554-1.196-1.246c0.002-0.724,0.562-1.26,1.288-1.237C40.607,48.781,41.116,49.31,41.114,50.003z"/>
	<path fill-rule="evenodd" clip-rule="evenodd" fill="#474747" d="M36.049,50.014c-0.007,0.723-0.571,1.256-1.297,1.227
		c-0.689-0.029-1.195-0.563-1.188-1.257c0.008-0.723,0.572-1.255,1.299-1.226C35.553,48.786,36.057,49.321,36.049,50.014z"/>
	<path fill-rule="evenodd" clip-rule="evenodd" fill="#474747" d="M29.706,51.241c-0.722-0.021-1.244-0.596-1.202-1.322
		c0.039-0.686,0.584-1.18,1.279-1.161c0.722,0.02,1.245,0.594,1.202,1.321C30.944,50.766,30.4,51.261,29.706,51.241z"/>
	<path fill-rule="evenodd" clip-rule="evenodd" fill="#474747" d="M71.496,44.902c0.018,0.694-0.48,1.237-1.168,1.274
		c-0.725,0.04-1.299-0.486-1.316-1.207c-0.02-0.725,0.525-1.279,1.25-1.274C70.955,43.699,71.479,44.211,71.496,44.902z"/>
	<path fill-rule="evenodd" clip-rule="evenodd" fill="#474747" d="M66.432,44.97c-0.018,0.722-0.592,1.247-1.318,1.206
		c-0.686-0.039-1.184-0.582-1.166-1.275c0.018-0.72,0.594-1.245,1.318-1.205C65.953,43.733,66.451,44.277,66.432,44.97z"/>
	<path fill-rule="evenodd" clip-rule="evenodd" fill="#474747" d="M60.141,46.177c-0.725,0.008-1.271-0.543-1.258-1.269
		c0.016-0.691,0.535-1.206,1.229-1.214c0.727-0.008,1.271,0.541,1.258,1.268C61.354,45.654,60.834,46.169,60.141,46.177z"/>
	<path fill-rule="evenodd" clip-rule="evenodd" fill="#474747" d="M56.305,44.963c-0.014,0.723-0.586,1.251-1.312,1.214
		c-0.686-0.035-1.188-0.576-1.172-1.27c0.016-0.721,0.586-1.25,1.311-1.213C55.82,43.729,56.318,44.27,56.305,44.963z"/>
	<path fill-rule="evenodd" clip-rule="evenodd" fill="#474747" d="M48.756,44.866c0.037-0.718,0.624-1.225,1.353-1.166
		c0.686,0.055,1.167,0.609,1.133,1.304c-0.037,0.686-0.578,1.187-1.27,1.173C49.249,46.163,48.72,45.593,48.756,44.866z"/>
	<path fill-rule="evenodd" clip-rule="evenodd" fill="#474747" d="M44.927,46.177c-0.726-0.005-1.261-0.565-1.234-1.292
		c0.023-0.687,0.558-1.195,1.25-1.191c0.725,0.004,1.261,0.565,1.234,1.29C46.153,45.674,45.621,46.182,44.927,46.177z"/>
	<path fill-rule="evenodd" clip-rule="evenodd" fill="#474747" d="M41.114,44.963c-0.015,0.723-0.585,1.251-1.312,1.214
		c-0.687-0.035-1.187-0.576-1.173-1.27c0.015-0.721,0.585-1.25,1.311-1.213C40.628,43.729,41.128,44.27,41.114,44.963z"/>
	<path fill-rule="evenodd" clip-rule="evenodd" fill="#474747" d="M34.806,46.177c-0.725-0.001-1.263-0.559-1.241-1.285
		c0.022-0.688,0.551-1.198,1.244-1.198c0.725,0,1.264,0.558,1.24,1.284C36.029,45.668,35.499,46.178,34.806,46.177z"/>
	<path fill-rule="evenodd" clip-rule="evenodd" fill="#474747" d="M30.986,44.922c0.007,0.693-0.497,1.228-1.187,1.255
		c-0.726,0.029-1.289-0.504-1.298-1.228c-0.007-0.725,0.544-1.27,1.271-1.254C30.465,43.708,30.979,44.229,30.986,44.922z"/>
	<path fill-rule="evenodd" clip-rule="evenodd" fill="#474747" d="M70.279,38.631c0.725,0.013,1.254,0.583,1.217,1.309
		c-0.035,0.687-0.576,1.187-1.27,1.173c-0.723-0.014-1.252-0.583-1.215-1.31C69.045,39.117,69.586,38.618,70.279,38.631z"/>
	<path fill-rule="evenodd" clip-rule="evenodd" fill="#474747" d="M65.188,41.113c-0.725-0.002-1.264-0.561-1.24-1.287
		c0.023-0.688,0.553-1.197,1.246-1.195c0.725,0.001,1.264,0.561,1.238,1.286C66.41,40.607,65.879,41.115,65.188,41.113z"/>
	<path fill-rule="evenodd" clip-rule="evenodd" fill="#474747" d="M60.057,41.113c-0.719-0.036-1.227-0.625-1.168-1.352
		c0.057-0.685,0.611-1.165,1.305-1.13c0.721,0.035,1.23,0.624,1.17,1.351C61.307,40.668,60.752,41.148,60.057,41.113z"/>
	<path fill-rule="evenodd" clip-rule="evenodd" fill="#474747" d="M55.051,38.631c0.691-0.007,1.227,0.499,1.254,1.187
		c0.029,0.725-0.506,1.289-1.229,1.295c-0.727,0.007-1.271-0.545-1.256-1.271C53.836,39.152,54.357,38.637,55.051,38.631z"/>
	<path fill-rule="evenodd" clip-rule="evenodd" fill="#474747" d="M49.97,38.631c0.694-0.015,1.235,0.483,1.27,1.17
		c0.039,0.727-0.491,1.297-1.212,1.312c-0.728,0.015-1.277-0.529-1.271-1.255C48.763,39.167,49.279,38.645,49.97,38.631z"/>
	<path fill-rule="evenodd" clip-rule="evenodd" fill="#474747" d="M44.922,38.631c0.692-0.007,1.228,0.499,1.255,1.187
		c0.029,0.725-0.506,1.289-1.229,1.295c-0.726,0.007-1.271-0.545-1.255-1.271C43.708,39.152,44.229,38.637,44.922,38.631z"/>
</g>
</svg>
