<svg xmlns="http://www.w3.org/2000/svg" class="h-full w-full fill-current" viewBox="0 0 100 100" >
<g>
	<path fill-rule="evenodd" clip-rule="evenodd" fill="#474747" d="M28.103,54.786c0,1.447-0.034,3.016,0.012,4.584
		c0.029,0.982,0.772,1.684,1.751,1.783c0.25,0.025,0.503,0.014,0.755,0.014c12.906,0,25.812,0,38.717,0
		c1.984,0,2.574-0.598,2.576-2.6c0.001-1.289,0-2.578,0-3.961c-1.299-0.08-2.575-0.129-3.846-0.242
		c-3.934-0.348-7.808-0.977-11.361-2.826c-0.826-0.431-1.602-1.003-2.299-1.625c-0.956-0.851-1.393-1.962-1.391-3.278
		c0.016-12.024,0.02-24.048-0.003-36.072c-0.003-1.711,0.773-2.945,2.057-3.929c1.912-1.464,4.139-2.248,6.444-2.787
		c7.622-1.785,15.229-1.753,22.744,0.523c1.654,0.501,3.225,1.398,4.702,2.323c1.438,0.901,2.053,2.334,2.047,4.105
		c-0.035,11.804-0.043,23.608,0.006,35.412c0.009,2.01-0.798,3.437-2.372,4.533c-2.213,1.541-4.729,2.346-7.334,2.838
		c-2.312,0.438-4.657,0.701-7.128,1.062c0,1.307,0.001,2.709,0,4.109c-0.004,3.006-1.67,4.678-4.669,4.68
		c-6.073,0.002-12.147,0-18.298,0c0,3.441,0,6.852,0,10.389c0.342,0,0.706,0,1.07,0c10.859,0,21.719,0,32.578,0
		c3.179,0.002,4.805,1.639,4.807,4.836c0,2.674,0,5.346,0,8.08c1.681,0.506,2.995,1.457,3.727,3.074
		c0.509,1.127,0.606,2.307,0.303,3.504c-0.646,2.553-2.921,4.238-5.509,4.104c-2.536-0.131-4.591-2.01-5.014-4.586
		c-0.443-2.697,1.083-4.943,4.214-6.133c0-2.932,0.026-5.885-0.015-8.84c-0.013-0.934-0.769-1.732-1.688-1.738
		c-5.123-0.037-10.247-0.018-15.421-0.018c0,3.512,0,6.959,0,10.404c3.323,1.369,4.737,3.654,4.083,6.586
		c-0.544,2.438-2.85,4.205-5.399,4.139c-2.513-0.064-4.766-2.012-5.147-4.451c-0.443-2.832,1.077-5.164,4.091-6.215
		c0-3.432,0-6.883,0-10.406c-5.535,0-11.085,0-16.695,0c0,3.5,0,7.01,0,10.596c1.607,0.451,2.892,1.391,3.653,2.947
		c0.561,1.146,0.665,2.363,0.383,3.592c-0.58,2.535-2.979,4.285-5.593,4.123c-2.484-0.152-4.622-2.121-4.944-4.553
		c-0.38-2.867,1.102-5.09,4.112-6.102c0-3.514,0-7.049,0-10.631c-5.56,0-11.087,0-16.682,0c0,3.512,0,7.021,0,10.615
		c1.642,0.486,3.103,1.414,3.66,3.131c0.353,1.084,0.492,2.373,0.275,3.482c-0.485,2.479-2.874,4.154-5.338,4.037
		c-2.521-0.121-4.694-2.012-5.078-4.418c-0.456-2.857,0.949-5.014,4.105-6.264c0-3.502,0-7.016,0-10.629c-0.314,0-0.587,0-0.861,0
		c-4.627,0-9.254-0.004-13.881,0c-1.72,0.002-2.4,0.684-2.403,2.402c-0.004,2.736-0.001,5.471-0.001,8.184
		c3.406,1.508,4.785,3.74,4.128,6.617c-0.564,2.473-2.932,4.248-5.502,4.129c-2.519-0.117-4.728-2.115-5.045-4.562
		c-0.374-2.879,1.096-5.086,4.153-6.117c0-1.592,0-3.221,0-4.852c0-1.195-0.005-2.391,0.001-3.588
		c0.014-2.732,1.754-4.477,4.498-4.479c10.922-0.004,21.845-0.002,32.767-0.002c0.375,0,0.751,0,1.195,0c0-3.453,0-6.861,0-10.389
		c-0.332,0-0.666,0-1,0c-5.792,0-11.583,0.004-17.375,0c-2.889-0.002-4.591-1.695-4.598-4.559c-0.003-1.414,0-2.828,0-4.305
		c-1.688-0.195-3.338-0.338-4.973-0.584c-2.933-0.441-5.817-1.104-8.421-2.596c-0.834-0.477-1.61-1.1-2.304-1.77
		c-0.77-0.742-1.117-1.719-1.116-2.817c0.006-12.15,0.006-24.3,0.001-36.45c-0.001-1.635,0.837-2.8,2.063-3.732
		c2.047-1.556,4.434-2.354,6.901-2.898c7.478-1.651,14.933-1.604,22.287,0.638c1.625,0.496,3.175,1.359,4.628,2.264
		c1.47,0.915,2.112,2.359,2.106,4.171c-0.038,11.867-0.035,23.733-0.002,35.6c0.005,1.734-0.667,3.037-1.988,4.058
		c-2.275,1.759-4.943,2.632-7.709,3.115C34.306,54.093,31.269,54.378,28.103,54.786z M44.714,14.046
		c-5.284,3.05-10.971,3.704-16.768,3.704c-5.781,0-11.445-0.693-16.66-3.693c0,2.608,0.054,5.095-0.022,7.578
		c-0.039,1.256,0.457,2.11,1.446,2.763c0.341,0.225,0.69,0.437,1.044,0.641c0.887,0.509,1.142,1.077,0.763,1.728
		c-0.376,0.646-0.966,0.716-1.883,0.217c-0.426-0.231-0.847-0.472-1.351-0.752c0,2.363,0.164,4.611-0.046,6.825
		c-0.211,2.229,0.88,3.404,2.653,4.271c0.452,0.221,0.906,0.444,1.379,0.607c7.54,2.601,15.195,2.641,22.868,0.796
		c1.854-0.446,3.6-1.424,5.326-2.295c0.906-0.457,1.303-1.34,1.271-2.45c-0.067-2.327-0.018-4.658-0.023-6.987
		c-0.001-0.226-0.048-0.451-0.067-0.622c-1.173,0.542-2.252,1.134-3.396,1.551c-4.926,1.797-10.052,2.202-15.242,2.035
		c-1.444-0.047-2.886-0.223-4.325-0.373c-0.902-0.094-1.423-0.62-1.297-1.295c0.151-0.809,0.717-1.044,1.476-0.95
		c0.218,0.027,0.439,0.034,0.658,0.061c4.946,0.599,9.863,0.442,14.733-0.637c2.155-0.478,4.257-1.136,6.083-2.447
		c0.73-0.524,1.374-1.136,1.376-2.13C44.72,19.518,44.714,16.843,44.714,14.046z M44.711,38.487
		c-5.268,3.072-10.941,3.72-16.698,3.725c-5.784,0.004-11.479-0.667-16.729-3.719c0,2.694,0.035,5.295-0.017,7.895
		c-0.02,0.991,0.323,1.779,1.113,2.247c1.235,0.73,2.496,1.514,3.851,1.932c7.333,2.262,14.755,2.301,22.158,0.408
		c1.762-0.45,3.433-1.356,5.048-2.233c0.574-0.312,1.188-1.144,1.217-1.765C44.784,44.188,44.711,41.39,44.711,38.487z
		 M88.722,38.487c-5.259,3.068-10.93,3.719-16.686,3.725c-5.786,0.006-11.481-0.662-16.743-3.722c0,2.688,0.034,5.286-0.018,7.882
		c-0.02,0.989,0.31,1.783,1.103,2.252c1.235,0.731,2.493,1.519,3.848,1.938c7.333,2.265,14.755,2.3,22.159,0.416
		c1.763-0.448,3.439-1.345,5.048-2.231c0.59-0.325,1.199-1.199,1.231-1.851C88.8,44.137,88.722,41.368,88.722,38.487z
		 M88.722,14.045c-5.27,3.042-10.927,3.699-16.693,3.705c-5.796,0.005-11.477-0.67-16.735-3.703c0,2.659,0.034,5.229-0.018,7.798
		c-0.02,0.989,0.313,1.779,1.106,2.251c1.206,0.719,2.436,1.489,3.76,1.907c7.133,2.25,14.363,2.249,21.62,0.64
		c2.004-0.444,3.975-1.068,5.605-2.357c0.59-0.467,1.257-1.256,1.294-1.93C88.807,19.628,88.722,16.888,88.722,14.045z
		 M88.723,26.272c-5.295,3.048-10.979,3.711-16.771,3.708c-5.78-0.003-11.45-0.694-16.658-3.704c0,2.653,0.039,5.201-0.02,7.746
		c-0.023,1.027,0.323,1.839,1.146,2.324c1.235,0.729,2.497,1.508,3.852,1.925c7.232,2.223,14.556,2.258,21.871,0.474
		c1.713-0.418,3.343-1.242,4.942-2.022c0.83-0.405,1.617-1.074,1.629-2.154C88.74,31.837,88.723,29.105,88.723,26.272z
		 M72.049,15.505c0.013,0.087,0.024,0.174,0.036,0.262c3.139-0.419,6.294-0.744,9.41-1.291c2.199-0.385,4.326-1.139,6.12-2.555
		c1.499-1.183,1.535-2.35-0.022-3.427c-1.121-0.775-2.373-1.47-3.669-1.869c-7.714-2.374-15.493-2.38-23.23-0.163
		c-1.614,0.462-3.146,1.403-4.544,2.372c-1.157,0.802-1.11,1.865-0.004,2.762c0.888,0.72,1.911,1.338,2.967,1.776
		C63.249,15.086,67.624,15.479,72.049,15.505z M27.954,15.498c0.012,0.09,0.024,0.181,0.036,0.271
		c3.169-0.425,6.356-0.747,9.501-1.309c2.227-0.398,4.385-1.165,6.176-2.648c1.312-1.087,1.375-2.2-0.005-3.179
		c-1.185-0.841-2.517-1.593-3.896-2.025c-7.292-2.284-14.669-2.259-22.062-0.496c-1.963,0.468-3.863,1.157-5.445,2.477
		c-1.317,1.099-1.376,2.173,0.007,3.176c1.126,0.817,2.409,1.494,3.717,1.97C19.84,15.138,23.875,15.504,27.954,15.498z
		 M88.432,88.931c-1.737,0.014-3.111,1.385-3.114,3.109c-0.003,1.729,1.372,3.115,3.098,3.123c1.771,0.01,3.175-1.395,3.16-3.16
		C91.562,90.286,90.159,88.917,88.432,88.931z M8.435,92.063c0.009,1.729,1.399,3.105,3.124,3.094
		c1.7-0.012,3.113-1.439,3.104-3.139s-1.44-3.105-3.147-3.09C9.784,88.944,8.426,90.325,8.435,92.063z M30.851,88.931
		c-1.717,0.018-3.118,1.436-3.1,3.137c0.018,1.701,1.449,3.104,3.153,3.09c1.721-0.014,3.08-1.404,3.074-3.145
		C33.971,90.286,32.577,88.911,30.851,88.931z M66.035,91.806c-0.018,1.734,1.336,3.135,3.055,3.158
		c1.692,0.023,3.14-1.381,3.166-3.076c0.026-1.689-1.377-3.123-3.085-3.148C67.444,88.714,66.053,90.075,66.035,91.806z
		 M53.104,92.03c-0.007-1.723-1.397-3.107-3.113-3.1c-1.72,0.008-3.093,1.396-3.088,3.123c0.004,1.717,1.402,3.109,3.113,3.104
		C51.728,95.149,53.111,93.749,53.104,92.03z"/>
	<path fill-rule="evenodd" clip-rule="evenodd" fill="#474747" d="M27.693,35.984c-1.758-0.14-3.824-0.285-5.885-0.478
		c-0.902-0.085-1.362-0.619-1.25-1.306c0.113-0.693,0.696-0.957,1.593-0.934c3.383,0.085,6.768,0.119,10.152,0.169
		c0.188,0.002,0.376-0.025,0.564-0.029c0.702-0.017,1.177,0.315,1.242,1.012c0.07,0.754-0.388,1.184-1.117,1.239
		C31.334,35.781,29.672,35.865,27.693,35.984z"/>
	<path fill-rule="evenodd" clip-rule="evenodd" fill="#474747" d="M27.847,23.942c-1.833-0.127-3.711-0.256-5.589-0.393
		c-0.249-0.018-0.498-0.066-0.743-0.121c-0.686-0.153-1.06-0.593-0.945-1.286c0.115-0.695,0.625-0.979,1.313-0.924
		c1.22,0.098,2.438,0.29,3.658,0.293c2.352,0.007,4.703-0.075,7.054-0.15c0.877-0.028,1.51,0.326,1.522,1.019
		c0.014,0.803-0.461,1.187-1.238,1.236C31.219,23.723,29.56,23.831,27.847,23.942z"/>
	<path fill-rule="evenodd" clip-rule="evenodd" fill="#474747" d="M38.224,36.096c-1.54-0.046-2.702-1.293-2.648-2.842
		c0.051-1.474,1.312-2.677,2.774-2.646c1.501,0.031,2.754,1.335,2.711,2.825C41.017,34.964,39.763,36.142,38.224,36.096z"/>
	<path fill-rule="evenodd" clip-rule="evenodd" fill="#474747" d="M38.345,18.593c1.529,0.024,2.757,1.288,2.715,2.794
		c-0.041,1.475-1.284,2.696-2.741,2.692c-1.56-0.004-2.797-1.294-2.745-2.862C35.624,19.721,36.841,18.569,38.345,18.593z"/>
	<path fill-rule="evenodd" clip-rule="evenodd" fill="#474747" d="M27.604,48.034c-1.739-0.139-3.771-0.301-5.803-0.464
		c-0.757-0.061-1.264-0.407-1.25-1.227c0.012-0.715,0.591-1.137,1.494-1.021c3.536,0.456,7.074,0.473,10.619,0.15
		c0.765-0.07,1.312,0.186,1.444,0.989c0.112,0.681-0.424,1.206-1.312,1.269C31.168,47.846,29.538,47.923,27.604,48.034z"/>
	<path fill-rule="evenodd" clip-rule="evenodd" fill="#474747" d="M38.229,48.147c-1.527-0.035-2.711-1.3-2.655-2.835
		c0.055-1.489,1.287-2.67,2.762-2.647c1.51,0.023,2.749,1.299,2.723,2.804C41.033,46.983,39.766,48.182,38.229,48.147z"/>
	<path fill-rule="evenodd" clip-rule="evenodd" fill="#474747" d="M71.675,48.033c-1.755-0.14-3.789-0.3-5.822-0.466
		c-0.768-0.062-1.283-0.455-1.209-1.257c0.076-0.808,0.662-1.099,1.426-0.998c3.568,0.47,7.143,0.481,10.722,0.16
		c0.76-0.068,1.336,0.181,1.396,1.021c0.059,0.837-0.493,1.181-1.236,1.232C75.29,47.839,73.627,47.921,71.675,48.033z"/>
	<path fill-rule="evenodd" clip-rule="evenodd" fill="#474747" d="M82.326,48.146c-1.527-0.032-2.712-1.282-2.675-2.823
		c0.035-1.479,1.267-2.667,2.753-2.658c1.521,0.01,2.75,1.265,2.729,2.787C85.112,46.975,83.859,48.179,82.326,48.146z"/>
	<path fill-rule="evenodd" clip-rule="evenodd" fill="#474747" d="M71.974,23.942c-1.856-0.13-3.798-0.265-5.739-0.403
		c-0.125-0.009-0.249-0.036-0.372-0.058c-0.917-0.165-1.374-0.646-1.214-1.34c0.183-0.798,0.745-0.987,1.505-0.904
		c1.154,0.126,2.314,0.275,3.472,0.275c2.352,0.001,4.704-0.077,7.055-0.153c0.902-0.029,1.475,0.307,1.5,1.031
		c0.028,0.826-0.455,1.177-1.228,1.227C75.323,23.722,73.694,23.83,71.974,23.942z"/>
	<path fill-rule="evenodd" clip-rule="evenodd" fill="#474747" d="M85.134,21.299c0.015,1.51-1.247,2.792-2.739,2.783
		c-1.521-0.01-2.749-1.252-2.744-2.776c0.006-1.494,1.188-2.688,2.687-2.713C83.868,18.567,85.119,19.778,85.134,21.299z"/>
	<path fill-rule="evenodd" clip-rule="evenodd" fill="#474747" d="M71.746,35.985c-1.771-0.142-3.834-0.31-5.896-0.473
		c-0.779-0.062-1.243-0.449-1.203-1.255c0.034-0.703,0.665-1.017,1.534-0.996c3.412,0.082,6.825,0.12,10.238,0.171
		c0.156,0.002,0.312-0.021,0.47-0.026c0.733-0.023,1.241,0.281,1.287,1.051c0.047,0.769-0.423,1.154-1.149,1.205
		C75.368,35.778,73.708,35.867,71.746,35.985z"/>
	<path fill-rule="evenodd" clip-rule="evenodd" fill="#474747" d="M82.28,36.093c-1.536-0.06-2.688-1.314-2.628-2.864
		c0.057-1.465,1.34-2.666,2.8-2.621c1.515,0.048,2.726,1.332,2.682,2.845C85.09,34.976,83.817,36.152,82.28,36.093z"/>
</g>
</svg>
