<svg xmlns="http://www.w3.org/2000/svg" class="h-full w-full fill-current" viewBox="0 0 100 100" >
<g id="T38lEo.tif">
	<g>
		<path fill-rule="evenodd" clip-rule="evenodd" fill="#474747" d="M50.011,20.328c10.141,0,20.281,0.017,30.422-0.013
			c2.365-0.007,4.654,0.2,6.732,1.441c3.652,2.185,5.586,5.425,5.605,9.671c0.047,10.727,0.014,21.453,0.014,32.179
			c0,7.908-0.002,15.814,0.004,23.723c0.002,2.219-0.49,4.309-1.709,6.172c-2.188,3.348-5.314,5.152-9.309,5.168
			C69.485,98.72,57.201,98.69,44.916,98.69c-8.84,0-17.681,0.025-26.521-0.016c-4.219-0.018-7.468-1.879-9.674-5.49
			c-1.082-1.773-1.519-3.73-1.518-5.799c0.006-8.172,0-16.344,0.007-24.516c0.003-2.73,0.045-5.459,0.042-8.188
			C7.245,47,7.217,39.316,7.212,31.632c-0.004-4.934,2.78-9.045,7.309-10.631c1.162-0.408,2.447-0.631,3.679-0.641
			C25.216,20.3,32.233,20.33,39.25,20.33c3.587,0,7.174,0,10.761,0C50.011,20.33,50.011,20.329,50.011,20.328z M49.981,79.446
			c10.504,0,21.009,0.004,31.514-0.014c0.762,0,1.547-0.078,2.279-0.273c3.838-1.014,6.248-4.244,6.248-8.311
			c0.002-13.141-0.002-26.281,0.002-39.421c0-4.419-3.387-8.059-7.799-8.303c-1.393-0.076-2.793-0.029-4.188-0.033
			c-10.604-0.019-21.207-0.041-31.812-0.051c-2.852-0.004-5.704,0.043-8.557,0.046c-6.388,0.007-12.775-0.001-19.164,0.007
			c-0.564,0.001-1.142,0.016-1.692,0.126c-4.152,0.835-6.852,4.142-6.853,8.376c-0.005,8.516-0.002,17.031-0.002,25.546
			c0,4.604,0,9.207,0,13.811c0,1.355,0.24,2.666,0.88,3.869c1.609,3.021,4.147,4.605,7.569,4.615
			C28.931,79.464,39.456,79.446,49.981,79.446z M9.964,78.563c0,3.141-0.068,6.225,0.036,9.301c0.038,1.125,0.284,2.338,0.789,3.332
			c1.534,3.025,4.066,4.697,7.509,4.707c10.197,0.031,20.395,0.012,30.592,0.012c10.912,0,21.823,0,32.736,0
			c4.691,0,8.383-3.672,8.396-8.359c0.008-2.818,0.002-5.637,0-8.457c0-0.168-0.021-0.336-0.037-0.553
			c-0.102,0.08-0.154,0.109-0.193,0.152c-2.34,2.424-5.193,3.516-8.564,3.502c-10.426-0.039-20.851-0.018-31.277-0.018
			c-10.628,0-21.258,0.008-31.886,0c-2.298-0.002-4.382-0.719-6.236-2.068C11.195,79.655,10.622,79.114,9.964,78.563z"/>
		<path fill-rule="evenodd" clip-rule="evenodd" fill="#474747" d="M49.737,1.302c6.434,0.086,12.024,2.286,16.729,6.699
			c0.133,0.124,0.263,0.253,0.386,0.388c0.561,0.616,0.563,1.417,0.01,1.958c-0.549,0.537-1.343,0.52-1.97-0.012
			c-0.972-0.827-1.903-1.714-2.946-2.438c-4.366-3.034-9.237-4.263-14.511-3.716c-4.94,0.513-9.213,2.543-12.773,6.022
			c-0.466,0.454-0.975,0.663-1.592,0.462c-0.548-0.178-0.946-0.6-0.89-1.169c0.044-0.44,0.253-0.956,0.562-1.264
			c2.902-2.888,6.345-4.878,10.277-6.003C45.21,1.603,47.448,1.279,49.737,1.302z"/>
		<path fill-rule="evenodd" clip-rule="evenodd" fill="#474747" d="M49.708,8.386c4.518,0.043,8.414,1.619,11.681,4.742
			c0.65,0.623,0.721,1.481,0.194,2.057c-0.55,0.602-1.427,0.588-2.097-0.051c-3.183-3.029-6.971-4.348-11.33-3.904
			c-3.054,0.311-5.71,1.571-7.972,3.658c-0.291,0.27-0.617,0.549-0.979,0.68c-0.584,0.213-1.221-0.081-1.523-0.586
			c-0.359-0.594-0.279-1.221,0.262-1.766c1.399-1.408,3.012-2.517,4.818-3.336C44.968,8.881,47.278,8.364,49.708,8.386z"/>
		<path fill-rule="evenodd" clip-rule="evenodd" fill="#474747" d="M38.126,49.238c-1.657-0.194-2.435-0.973-2.398-2.33
			c0.02-0.727,0.363-1.279,0.947-1.678c4.027-2.76,8.057-5.516,12.091-8.264c0.803-0.547,1.651-0.551,2.45-0.009
			c4.036,2.747,8.063,5.507,12.089,8.271c0.813,0.559,1.14,1.489,0.891,2.403c-0.248,0.905-0.988,1.478-2.02,1.558
			c-0.077,0.006-0.155,0.019-0.312,0.038c0,0.247,0,0.483,0,0.72c0,4.523-0.001,9.044,0,13.568c0.001,1.564-0.868,2.443-2.444,2.447
			c-1.785,0.004-3.569,0.002-5.354-0.002c-1.017-0.004-1.569-0.547-1.576-1.588c-0.013-1.984-0.004-3.971-0.004-6.006
			c-1.658,0-3.283,0-4.978,0c0,1.086,0,2.154,0.001,3.225c0,0.932,0.016,1.865-0.001,2.797c-0.019,1.027-0.565,1.566-1.601,1.572
			c-1.805,0.012-3.609,0.01-5.415,0c-1.526-0.008-2.341-0.939-2.333-2.459c0.02-3.607-0.02-7.217-0.032-10.826
			C38.123,51.542,38.126,50.41,38.126,49.238z M44.751,63.161c0-0.264,0-0.482,0-0.703c-0.001-1.561-0.007-3.121,0-4.682
			c0.004-1.139,0.79-2.131,1.805-2.156c2.188-0.057,4.376-0.092,6.563-0.053c1.314,0.025,2.109,0.947,2.111,2.256
			c0.003,1.562,0,3.123,0,4.684c0,0.215,0,0.428,0,0.645c1.344,0,2.591,0,3.883,0c0-0.281,0-0.52,0-0.76
			c0-4.684,0.012-9.365-0.011-14.049c-0.005-0.833,0.133-1.522,1.025-1.898c-1.469-0.989-2.886-1.925-4.285-2.89
			c-1.818-1.25-3.628-2.516-5.428-3.795c-0.319-0.227-0.542-0.229-0.848,0.002c-0.6,0.451-1.225,0.867-1.841,1.293
			c-2.599,1.794-5.198,3.586-7.821,5.396c0.566,0.298,0.973,0.699,0.97,1.397c-0.016,4.115-0.024,8.23-0.034,12.343
			c-0.004,0.984-0.001,1.969-0.001,2.971C42.189,63.161,43.421,63.161,44.751,63.161z"/>
		<path fill-rule="evenodd" clip-rule="evenodd" fill="#474747" d="M20.928,40.421c-3.782-0.004-6.861-3.07-6.849-6.82
			c0.012-3.859,3.057-6.918,6.889-6.923c3.74-0.006,6.857,3.104,6.859,6.845C27.827,37.369,24.77,40.425,20.928,40.421z
			 M16.847,33.539c-0.004,2.277,1.781,4.102,4.047,4.137c2.276,0.036,4.152-1.811,4.153-4.092c0.001-2.284-1.797-4.115-4.05-4.122
			C18.674,29.455,16.851,31.246,16.847,33.539z"/>
		<path fill-rule="evenodd" clip-rule="evenodd" fill="#474747" d="M33.521,37.636c-2.25,0.02-4.092-1.773-4.104-3.994
			c-0.012-2.304,1.779-4.17,4.005-4.172c2.361-0.003,4.142,1.765,4.16,4.133C37.598,35.828,35.796,37.618,33.521,37.636z
			 M33.454,32.251c-0.689,0.004-1.269,0.578-1.275,1.264c-0.006,0.76,0.574,1.371,1.307,1.38c0.74,0.007,1.341-0.6,1.334-1.348
			C34.812,32.783,34.247,32.247,33.454,32.251z"/>
		<path fill-rule="evenodd" clip-rule="evenodd" fill="#474747" d="M54.419,47.259c0.031,2.184-1.785,4.562-4.844,4.378
			c-2.178-0.131-4.07-2.185-4.021-4.48c0.055-2.467,2.106-4.451,4.518-4.371C52.545,42.87,54.489,44.87,54.419,47.259z
			 M51.675,47.244c-0.003-0.922-0.785-1.711-1.691-1.705c-0.88,0.004-1.662,0.779-1.68,1.664c-0.018,0.891,0.793,1.704,1.701,1.707
			C50.873,48.912,51.678,48.11,51.675,47.244z"/>
	</g>
</g>
</svg>
