<svg xmlns="http://www.w3.org/2000/svg" class="h-full w-full fill-current" viewBox="0 0 100 100" ><g>
	<path fill-rule="evenodd" clip-rule="evenodd" fill="#474747" d="M86.885,58.803c5.492,0.285,8.922,3.215,10.647,8.104
		c1.794,5.096,0.783,9.812-2.964,13.691c-5.572,5.77-11.312,11.377-16.989,17.045c-0.974,0.971-1.767,0.947-2.774-0.057
		c-3.28-3.27-6.564-6.537-9.815-9.836c-0.604-0.613-1.21-0.891-2.095-0.891c-18.093,0.027-36.186-0.039-54.277,0.066
		c-4.135,0.025-7.027-2.984-7.013-7.033C1.69,56.029,1.646,32.162,1.648,8.296C1.649,4.865,3.655,2.347,6.861,1.75
		c0.49-0.092,1.001-0.101,1.502-0.101C32.33,1.645,56.296,1.644,80.263,1.648c3.984,0,6.615,2.626,6.617,6.628
		c0.01,16.414,0.005,32.828,0.005,49.241C86.885,57.916,86.885,58.314,86.885,58.803z M31.336,54.285
		c0.213-0.545,0.357-0.881,0.477-1.225c1.769-5.097,3.533-10.195,5.3-15.292c1.229-3.546,2.461-7.091,3.689-10.637
		c0.266-0.767,0.741-1.298,1.594-1.299c0.847-0.003,1.356,0.486,1.596,1.279c0.049,0.161,0.113,0.316,0.166,0.475
		c2.185,6.548,4.383,13.092,6.531,19.652c0.242,0.733,0.553,0.967,1.32,0.964c8.124-0.028,16.247-0.018,24.37-0.02
		c0.321,0,0.642-0.029,0.928-0.044c0-12.332,0-24.562,0-36.769c-22.023,0-43.964,0-65.925,0c0,12.286,0,24.517,0,36.814
		c2.845,0,5.627-0.038,8.406,0.022c0.823,0.019,1.158-0.263,1.437-1.004c0.906-2.415,1.896-4.8,2.858-7.194
		c0.29-0.723,0.803-1.149,1.615-1.115c0.816,0.034,1.274,0.516,1.514,1.253c0.083,0.255,0.148,0.516,0.224,0.772
		C28.711,45.293,29.987,49.666,31.336,54.285z M55.349,77.35c0.036-0.107,0.063-0.146,0.055-0.17
		c-0.081-0.219-0.166-0.438-0.253-0.654c-1.369-3.354-1.447-6.744-0.098-10.096c3.521-8.73,13.054-9.777,18.271-3.889
		c0.886,1,1.825,1.951,2.71,2.895c1.034-0.615,1.401-1.279,1.381-2.322c-0.067-3.523-0.026-7.047-0.026-10.572
		c0-0.357,0-0.711,0-1.133c-0.531,0-0.929,0-1.326,0c-8.561,0-17.12,0.002-25.68,0c-1.386,0-1.768-0.273-2.202-1.576
		c-1.349-4.036-2.69-8.074-4.037-12.11c-0.553-1.658-1.112-3.313-1.767-5.26c-0.22,0.63-0.338,0.967-0.455,1.306
		c-3.003,8.64-6.012,17.277-9.002,25.922c-0.296,0.859-0.693,1.57-1.703,1.566c-1.074-0.004-1.45-0.781-1.707-1.68
		c-0.752-2.643-1.524-5.279-2.293-7.916c-0.579-1.985-1.166-3.966-1.824-6.207c-0.652,1.611-1.2,2.961-1.745,4.312
		c-0.591,1.457-0.853,1.643-2.38,1.643c-2.954,0.002-5.908,0-8.862,0c-0.352,0-0.702,0-1.028,0c0,8.746,0,17.324,0,25.941
		C26.064,77.35,40.691,77.35,55.349,77.35z M60.545,83.658c0.055-0.084,0.11-0.166,0.166-0.248c-0.669-0.641-1.378-1.244-1.994-1.93
		c-0.58-0.646-1.209-0.893-2.093-0.891c-15.374,0.029-30.75,0.02-46.124,0.02c-1.979,0-2.407-0.432-2.407-2.428
		c0-22.559,0-45.119,0-67.678c0-1.984,0.43-2.412,2.421-2.412c22.559-0.001,45.117-0.001,67.677,0c1.988,0,2.421,0.43,2.421,2.414
		c0,16.449,0,32.898,0,49.348c0,0.371,0,0.744,0,1.178c0.812-0.461,1.419-0.932,2.103-1.158c0.851-0.283,0.963-0.795,0.961-1.58
		c-0.018-16.551-0.015-33.101-0.015-49.65c0-2.698-1.076-3.773-3.775-3.773c-23.733-0.001-47.468-0.001-71.201,0
		c-2.74,0-3.813,1.083-3.813,3.851c0,23.699,0.021,47.401-0.033,71.101c-0.005,2.236,1.146,3.883,3.845,3.873
		c16.919-0.07,33.839-0.035,50.757-0.035C59.807,83.658,60.176,83.658,60.545,83.658z M76.079,94.268
		c5.606-5.521,11.226-10.865,16.611-16.436c3.15-3.258,3.208-8.572,0.579-12.297c-2.967-4.203-7.939-4.635-11.58-1.002
		c-1.331,1.328-2.653,2.662-3.987,3.986c-1.128,1.117-1.845,1.111-2.99-0.023c-1.478-1.467-2.917-2.971-4.428-4.4
		c-3.037-2.869-7.522-2.654-10.324,0.445c-3.668,4.061-3.5,10.092,0.46,14.092c5.054,5.104,10.151,10.164,15.232,15.24
		C75.814,94.037,75.99,94.186,76.079,94.268z"/>
	<path fill-rule="evenodd" clip-rule="evenodd" fill="#474747" d="M76.071,87.139c-0.399-0.311-1.021-0.562-1.202-0.994
		c-0.194-0.473-0.207-1.32,0.092-1.646c1.551-1.705,3.194-3.328,4.873-4.908c0.606-0.572,1.396-0.457,2.002,0.123
		c0.641,0.609,0.785,1.43,0.188,2.07c-1.572,1.686-3.232,3.291-4.886,4.898C76.919,86.896,76.541,86.945,76.071,87.139z"/>
	<path fill-rule="evenodd" clip-rule="evenodd" fill="#474747" d="M85.7,77.344c-0.318-0.254-0.964-0.525-1.148-0.984
		c-0.19-0.467-0.101-1.232,0.18-1.662c0.47-0.713,1.155-1.301,1.818-1.863c0.598-0.504,1.312-0.5,1.953-0.037
		c0.66,0.48,0.908,1.283,0.483,1.867c-0.676,0.93-1.6,1.682-2.443,2.484C86.419,77.266,86.161,77.244,85.7,77.344z"/>
</g>
</svg>
