<svg xmlns="http://www.w3.org/2000/svg" class="h-full w-full fill-current" viewBox="0 0 100 100" ><g>
	<path fill-rule="evenodd" clip-rule="evenodd" fill="#474747" d="M48.879,1.866c1.647,0.34,3.323,0.576,4.935,1.038
		c6.3,1.804,11.512,5.412,16.149,9.934c2.995,2.921,5.624,6.15,7.901,9.654c2.747,4.227,3.47,8.945,3.076,13.863
		c-0.415,5.167-2.151,9.818-5.74,13.674c-0.062,0.065-0.089,0.162-0.14,0.256c2.709,2.981,4.115,6.479,4.07,10.515
		c-0.097,8.67-7.782,15.521-16.408,14.658c-9.052-0.906-15.849-6.914-17.684-15.631c-2.364-11.231,5.998-22.347,17.458-23.205
		c0.53-0.04,1.063-0.105,1.594-0.085c0.869,0.032,1.473,0.633,1.475,1.397c0.004,0.769-0.571,1.364-1.464,1.393
		c-2.767,0.089-5.385,0.7-7.837,2.015C48.55,45.477,45.325,55.02,48.987,62.92c0.1,0.215,0.227,0.42,0.45,0.832
		c0-2.133-0.239-4.062,0.042-5.914c0.988-6.5,6.784-11.755,13.335-12.152c1.409-0.086,2.413-0.581,3.299-1.6
		c3.375-3.882,4.827-8.277,3.62-13.385c-0.143-0.602-0.368-1.212-0.686-1.74c-3.527-5.875-7.986-10.834-14.141-14.06
		c-3.051-1.6-6.297-2.51-9.774-2.045c-4.477,0.597-7.664,3.199-10.096,6.834c-2.537,3.792-3.956,8.045-4.549,12.516
		c-2.16,16.27,1.926,30.894,11.85,43.923c0.057,0.074,0.117,0.146,0.172,0.223c0.586,0.801,0.529,1.66-0.144,2.16
		c-0.646,0.479-1.444,0.336-2.06-0.406c-2.787-3.373-5.098-7.055-6.971-11c-4.451-9.383-6.699-19.25-6.24-29.657
		c0.285-6.454,1.604-12.674,4.955-18.302c2.686-4.507,6.361-7.825,11.658-8.903c4.607-0.938,8.894,0.218,12.941,2.377
		c5.458,2.912,9.484,7.337,13.186,12.214c5.472,7.207,2.935,15.72-0.985,20.378c-0.216,0.257-0.426,0.518-0.623,0.758
		c1.591,0.768,3.125,1.507,4.738,2.286c2.008-1.971,3.374-4.44,4.217-7.202c1.349-4.425,1.429-8.87,0.085-13.322
		c-0.814-2.702-2.498-4.893-4.173-7.079c-4.084-5.33-8.845-9.906-14.886-12.988c-5.393-2.75-11.027-3.868-16.994-2.214
		c-3.375,0.935-6.352,2.618-8.923,5.006c-0.16,0.149-0.312,0.309-0.482,0.446c-0.683,0.55-1.497,0.529-2.024-0.042
		c-0.541-0.584-0.516-1.382,0.119-2.015c1.834-1.829,3.93-3.3,6.248-4.448c2.546-1.259,5.215-2.109,8.056-2.382
		c0.181-0.018,0.356-0.099,0.535-0.15C46.122,1.866,47.501,1.866,48.879,1.866z M64.278,48.393
		c-6.59-0.116-12.126,5.269-12.255,11.919c-0.13,6.725,5.235,12.287,11.968,12.402c6.589,0.113,12.195-5.291,12.324-11.881
		C76.447,54.061,71.079,48.513,64.278,48.393z"/>
	<path fill-rule="evenodd" clip-rule="evenodd" fill="#474747" d="M58.845,98.135c-1.706-0.361-3.441-0.619-5.113-1.1
		c-6.62-1.906-12.061-5.734-16.766-10.646c-8.268-8.635-13.305-19.002-16.093-30.531c-1.668-6.898-2.3-13.896-1.681-20.978
		c0.638-7.293,2.479-14.226,6.395-20.503c0.148-0.238,0.291-0.49,0.481-0.692c0.516-0.546,1.14-0.675,1.778-0.261
		c0.621,0.402,0.835,0.996,0.55,1.713c-0.069,0.173-0.165,0.337-0.265,0.495c-3.902,6.157-5.695,12.974-6.148,20.166
		c-0.922,14.629,2.705,28.115,10.542,40.455c4.05,6.379,9.157,11.75,15.815,15.49c4.226,2.373,8.734,3.771,13.628,3.537
		c3.032-0.146,5.985-0.703,8.49-2.598c3.057-2.312,4.618-5.439,4.898-9.236c0.011-0.156,0.008-0.312,0.019-0.469
		c0.062-0.945,0.633-1.549,1.437-1.525c0.802,0.023,1.392,0.666,1.371,1.596c-0.06,2.881-0.842,5.557-2.402,7.986
		c-2.742,4.27-6.808,6.303-11.715,6.91c-0.302,0.037-0.598,0.125-0.897,0.191C61.729,98.135,60.286,98.135,58.845,98.135z"/>
	<path fill-rule="evenodd" clip-rule="evenodd" fill="#474747" d="M58.248,57.523c0.004-3.281,2.623-5.904,5.897-5.906
		c3.264,0,5.928,2.633,5.951,5.881c0.023,3.264-2.711,5.998-5.975,5.971C60.857,63.443,58.244,60.797,58.248,57.523z M64.185,54.439
		c-1.731-0.018-3.106,1.338-3.115,3.07c-0.01,1.73,1.35,3.123,3.062,3.139c1.69,0.014,3.126-1.396,3.144-3.088
		C67.294,55.865,65.897,54.455,64.185,54.439z"/>
	<path fill-rule="evenodd" clip-rule="evenodd" fill="#474747" d="M64.193,66.699c0.5,0,1.001-0.027,1.499,0.006
		c0.813,0.055,1.405,0.633,1.374,1.369c-0.033,0.787-0.477,1.334-1.259,1.389c-1.087,0.076-2.188,0.074-3.275,0.006
		c-0.826-0.053-1.319-0.688-1.259-1.463c0.062-0.807,0.529-1.248,1.327-1.299C63.13,66.674,63.662,66.699,64.193,66.699z"/>
</g>
</svg>
