<?xml version="1.0" encoding="utf-8"?>
<!-- Generator: Adobe Illustrator 16.0.0, SVG Export Plug-In . SVG Version: 6.00 Build 0)  -->
<!DOCTYPE svg PUBLIC "-//W3C//DTD SVG 1.1//EN" "http://www.w3.org/Graphics/SVG/1.1/DTD/svg11.dtd">
<svg version="1.1" id="Layer_1" xmlns="http://www.w3.org/2000/svg" xmlns:xlink="http://www.w3.org/1999/xlink" x="0px" y="0px"
	 width="100px" height="100px" viewBox="0 0 100 100" enable-background="new 0 0 100 100" xml:space="preserve">
<g>
	<g>
		<path fill-rule="evenodd" clip-rule="evenodd" fill="#474747" d="M8.648,47.196c0.36-0.254,0.688-0.619,1.088-0.736
			c0.658-0.195,1.299,0.384,1.343,1.141c0.037,0.617,0.015,1.238,0.015,1.857c0,13.378-0.002,26.757,0.001,40.136
			c0.002,3.145,1.707,5.5,4.562,6.264c0.591,0.158,1.221,0.229,1.833,0.229c21.617,0.01,43.232,0.01,64.848-0.002
			c4.016-0.004,6.559-2.576,6.561-6.574C88.902,77.934,88.9,66.357,88.9,54.783c0-0.217,0.01-0.432-0.002-0.646
			c-0.039-0.686,0.051-1.338,0.797-1.592c0.768-0.26,1.289,0.137,1.656,0.789c0,12.598,0,25.197,0,37.797
			c-0.137,0.484-0.26,0.973-0.416,1.453c-1.201,3.695-4.447,5.963-8.566,5.963c-21.58,0.004-43.159,0.002-64.738,0.002
			c-0.269,0-0.538-0.002-0.806-0.018c-3.594-0.193-6.654-2.533-7.763-5.947c-0.155-0.479-0.277-0.969-0.414-1.453
			C8.648,76.486,8.648,61.84,8.648,47.196z"/>
		<path fill-rule="evenodd" clip-rule="evenodd" fill="#474747" d="M91.352,49.295c-0.172,0.161-0.328,0.341-0.516,0.479
			c-0.754,0.552-1.77,0.136-1.912-0.786c-0.045-0.29-0.023-0.591-0.023-0.887c0-7.588,0-15.175-0.002-22.763
			c0-4.125-2.498-6.676-6.611-6.678c-21.605-0.013-43.211-0.015-64.817-0.008c-3.769,0.001-6.366,2.639-6.373,6.43
			c-0.01,5.543-0.003,11.086-0.003,16.628c0,0.215-0.013,0.431,0.002,0.646c0.047,0.702-0.108,1.322-0.845,1.564
			c-0.738,0.244-1.219-0.19-1.603-0.763c0-6.515,0-13.03,0-19.545c0.146-0.51,0.275-1.026,0.445-1.528
			c1.231-3.666,4.448-5.888,8.536-5.889c21.58-0.002,43.161-0.001,64.741,0c0.268,0,0.537,0.002,0.807,0.016
			c3.594,0.187,6.648,2.528,7.758,5.949c0.156,0.479,0.279,0.968,0.416,1.453C91.352,32.173,91.352,40.734,91.352,49.295z"/>
		<path fill-rule="evenodd" clip-rule="evenodd" fill="#474747" d="M66.961,53.469c-1.992,0-3.982,0.002-5.975,0
			c-2.432,0-3.523-0.832-4.18-3.177c-0.942-3.366-3.874-5.758-7.319-5.974c-3.359-0.21-6.581,1.779-7.919,4.91
			c-0.209,0.491-0.342,1.016-0.494,1.531c-0.486,1.646-1.71,2.681-3.412,2.694c-4.412,0.035-8.826,0.049-13.238-0.002
			c-2.268-0.027-3.748-1.824-3.479-4.12c0.773-6.589,3.452-12.293,8.193-16.941c6.169-6.05,13.646-8.73,22.244-8.098
			c12.75,0.938,23.479,10.905,25.451,23.525c0.123,0.794,0.293,1.607,0.238,2.398c-0.133,1.917-1.643,3.206-3.654,3.253
			c-0.053,0-0.107,0-0.162,0C71.158,53.469,69.059,53.469,66.961,53.469z M23.734,47.354c-0.098,0.648-0.188,1.229-0.273,1.81
			c-0.212,1.468,0.082,1.828,1.525,1.826c4.064-0.004,8.13-0.012,12.194-0.023c1.117-0.003,1.279-0.143,1.588-1.197
			c1.256-4.27,4.083-6.842,8.428-7.74c0.437-0.09,0.585-0.249,0.571-0.681c-0.025-0.807-0.027-1.616,0.002-2.423
			c0.03-0.818,0.519-1.31,1.234-1.308c0.729,0.002,1.182,0.477,1.209,1.317c0.023,0.753,0.029,1.508,0,2.261
			c-0.021,0.51,0.109,0.729,0.673,0.849c4.269,0.913,7.058,3.475,8.315,7.663c0.342,1.129,0.494,1.281,1.695,1.283
			c2.072,0.003,4.145,0.005,6.217,0c2.074-0.004,4.146-0.018,6.219-0.022c0.623-0.002,1.221-0.168,1.227-0.871
			c0.008-0.893-0.164-1.788-0.266-2.726c-0.789,0.185-1.412,0.346-2.041,0.473c-0.92,0.187-1.545-0.147-1.715-0.887
			c-0.166-0.73,0.273-1.312,1.168-1.539c0.617-0.157,1.234-0.305,1.926-0.474c-0.857-2.822-2.098-5.342-3.834-7.683
			c-0.719,0.577-1.361,1.105-2.016,1.618c-0.773,0.606-1.516,0.601-1.996,0.001c-0.475-0.593-0.348-1.242,0.396-1.878
			c0.664-0.569,1.348-1.118,2.051-1.7c-2.074-2.311-4.402-4.176-7.137-5.609c-0.414,0.842-0.785,1.616-1.17,2.382
			c-0.422,0.84-1.069,1.125-1.752,0.786c-0.674-0.334-0.838-1.007-0.446-1.867c0.353-0.774,0.718-1.543,1.108-2.381
			c-2.795-1.13-5.594-1.779-8.628-1.932c0,1.131,0.07,2.208-0.036,3.268c-0.039,0.392-0.422,0.884-0.781,1.064
			c-0.291,0.147-0.903,0.024-1.153-0.212c-0.286-0.27-0.428-0.791-0.456-1.215c-0.064-0.953-0.02-1.914-0.02-2.917
			c-3.043,0.193-5.855,0.785-8.609,1.948c0.386,0.811,0.745,1.556,1.096,2.305c0.432,0.924,0.28,1.596-0.428,1.944
			c-0.696,0.343-1.341,0.029-1.78-0.872c-0.372-0.764-0.737-1.531-1.125-2.334c-2.775,1.492-5.123,3.333-7.159,5.653
			c0.735,0.599,1.431,1.148,2.107,1.72c0.711,0.601,0.821,1.316,0.32,1.891c-0.469,0.537-1.179,0.545-1.87,0.004
			c-0.694-0.542-1.376-1.098-2.123-1.695c-1.726,2.384-2.996,4.895-3.836,7.723c0.679,0.165,1.298,0.312,1.917,0.466
			c0.911,0.229,1.349,0.795,1.181,1.524c-0.172,0.747-0.787,1.073-1.712,0.88C25.088,47.693,24.444,47.523,23.734,47.354z"/>
		<path fill-rule="evenodd" clip-rule="evenodd" fill="#474747" d="M50.081,68.104c7.779,0,15.56-0.002,23.339,0
			c0.322,0,0.648-0.006,0.967,0.037c0.648,0.09,1.018,0.5,1.049,1.139c0.029,0.641-0.305,1.084-0.936,1.238
			c-0.283,0.068-0.586,0.07-0.881,0.07c-15.746,0.004-31.494,0.004-47.241,0c-0.294,0-0.599-0.002-0.881-0.07
			c-0.632-0.154-0.963-0.602-0.932-1.24c0.03-0.641,0.399-1.047,1.049-1.137c0.317-0.043,0.645-0.037,0.967-0.037
			C34.414,68.102,42.248,68.104,50.081,68.104z"/>
		<path fill-rule="evenodd" clip-rule="evenodd" fill="#474747" d="M49.919,78.711c-5.815,0-11.63,0-17.444-0.002
			c-0.242,0-0.486,0.014-0.727-0.008c-0.688-0.062-1.152-0.561-1.152-1.215c0-0.656,0.461-1.15,1.151-1.221
			c0.214-0.023,0.432-0.012,0.646-0.012c11.737,0,23.474,0,35.212,0c0.215,0,0.432-0.012,0.646,0.012
			c0.689,0.07,1.152,0.566,1.152,1.221c0,0.652-0.467,1.152-1.152,1.215c-0.24,0.021-0.484,0.008-0.727,0.008
			C61.656,78.711,55.787,78.711,49.919,78.711z"/>
		<path fill-rule="evenodd" clip-rule="evenodd" fill="#474747" d="M50.002,86.129c-3.763,0-7.526,0.012-11.29-0.018
			c-0.423-0.004-0.948-0.139-1.232-0.412c-0.246-0.24-0.387-0.824-0.27-1.143c0.131-0.357,0.576-0.637,0.942-0.85
			c0.204-0.117,0.526-0.037,0.794-0.037c7.367-0.002,14.732-0.002,22.099,0c0.242,0,0.486-0.014,0.725,0.012
			c0.693,0.074,1.082,0.504,1.115,1.166c0.033,0.635-0.334,1.068-0.951,1.23c-0.254,0.068-0.533,0.049-0.801,0.049
			C57.422,86.129,53.713,86.129,50.002,86.129z"/>
		<path fill-rule="evenodd" clip-rule="evenodd" fill="#474747" d="M48.958,54.986c-2.33-0.02-4.16-1.895-4.14-4.241
			c0.021-2.277,1.902-4.133,4.187-4.127c2.31,0.005,4.222,1.922,4.202,4.214C53.189,53.141,51.281,55.006,48.958,54.986z
			 M50.585,50.841c0.01-0.895-0.666-1.617-1.532-1.638c-0.922-0.022-1.627,0.683-1.621,1.622c0.006,0.884,0.709,1.614,1.565,1.624
			C49.813,52.459,50.576,51.686,50.585,50.841z"/>
	</g>
	<path fill-rule="evenodd" clip-rule="evenodd" fill="#474747" d="M50.011,1.452c5.365,0.072,10.028,1.906,13.95,5.586
		c0.111,0.104,0.219,0.211,0.322,0.323c0.467,0.514,0.469,1.182,0.008,1.633c-0.457,0.448-1.119,0.434-1.643-0.01
		c-0.811-0.689-1.588-1.429-2.457-2.033c-3.641-2.53-7.703-3.555-12.102-3.099c-4.119,0.427-7.682,2.121-10.651,5.022
		c-0.389,0.379-0.812,0.553-1.327,0.385c-0.457-0.148-0.789-0.5-0.742-0.975c0.037-0.367,0.212-0.797,0.469-1.054
		c2.42-2.408,5.291-4.068,8.569-5.006C46.235,1.703,48.103,1.432,50.011,1.452z"/>
	<path fill-rule="evenodd" clip-rule="evenodd" fill="#474747" d="M50.009,7.359c3.767,0.036,7.017,1.351,9.741,3.955
		c0.541,0.52,0.6,1.236,0.16,1.715c-0.457,0.501-1.189,0.49-1.748-0.042c-2.653-2.526-5.812-3.625-9.448-3.256
		c-2.546,0.259-4.761,1.311-6.647,3.051c-0.242,0.225-0.515,0.458-0.816,0.567c-0.486,0.177-1.018-0.068-1.271-0.489
		c-0.3-0.495-0.232-1.018,0.219-1.472c1.167-1.174,2.511-2.099,4.018-2.782C46.055,7.772,47.982,7.34,50.009,7.359z"/>
</g>
</svg>
