<?xml version="1.0" encoding="utf-8"?>
<!-- Generator: Adobe Illustrator 16.0.0, SVG Export Plug-In . SVG Version: 6.00 Build 0)  -->
<!DOCTYPE svg PUBLIC "-//W3C//DTD SVG 1.1//EN" "http://www.w3.org/Graphics/SVG/1.1/DTD/svg11.dtd">
<svg version="1.1" id="Layer_1" xmlns="http://www.w3.org/2000/svg" xmlns:xlink="http://www.w3.org/1999/xlink" x="0px" y="0px"
	 width="100px" height="100px" viewBox="0 0 100 100" enable-background="new 0 0 100 100" xml:space="preserve">
<g>
	<path fill="#474747" d="M96.915,34.79c0,0.305,0,0.61,0,0.916c-0.407,0.766-1.057,0.985-1.898,0.977
		c-2.931-0.031-5.861-0.012-8.792-0.012c-0.325,0-0.65,0-0.978,0c0,1.598,0,3.072,0,4.596c3.216,0,6.359,0.014,9.502-0.01
		c0.862-0.008,1.62,0.133,2.166,0.863c0,0.306,0,0.611,0,0.916c-0.397,0.771-1.044,1.002-1.886,0.99
		c-2.467-0.031-4.935-0.01-7.401-0.01c-0.785,0-1.569,0-2.398,0c0,1.574,0,3.047,0,4.608c0.414,0,0.773,0,1.133,0
		c2.894,0,5.787,0.011,8.681-0.007c0.832-0.005,1.491,0.229,1.872,1.016c0,0.244,0,0.488,0,0.733
		c-0.381,0.786-1.039,1.021-1.871,1.015c-2.923-0.018-5.847-0.008-8.771-0.004c-0.349,0-0.698,0.031-1.048,0.047
		c0,1.559,0,3.006,0,4.553c0.378,0,0.707,0,1.036,0c2.923,0,5.847,0.016,8.77-0.012c0.842-0.008,1.485,0.23,1.884,0.998
		c0,0.307,0,0.611,0,0.918c-0.547,0.73-1.309,0.861-2.169,0.854c-2.777-0.025-5.557-0.008-8.335-0.008c-0.385,0-0.77,0-1.164,0
		c0,1.592,0,3.064,0,4.604c0.404,0,0.736,0,1.067,0c2.9,0,5.801,0.02,8.701-0.014c0.842-0.008,1.492,0.211,1.899,0.979
		c0,0.305,0,0.609,0,0.916c-0.524,0.68-1.222,0.893-2.067,0.879c-2.076-0.033-4.153-0.01-6.229-0.01c-1.12,0-2.24,0-3.377,0
		c0,1.582,0,3.057,0,4.598c0.398,0,0.729,0,1.061,0c2.9,0,5.802,0.02,8.701-0.012c0.84-0.01,1.494,0.199,1.911,0.959
		c0,0.305,0,0.609,0,0.916c-0.517,0.684-1.2,0.908-2.055,0.898c-2.895-0.033-5.791-0.012-8.687-0.012c-0.321,0-0.644,0-0.948,0
		c-0.247,2.053-0.489,2.545-1.896,3.953c-1.832,1.832-3.688,3.641-5.488,5.504c-1.211,1.256-2.472,2.355-4.414,2.303
		c0,0.416,0,0.748,0,1.078c0,2.865-0.021,5.73,0.013,8.594c0.01,0.855-0.216,1.539-0.899,2.055c-0.306,0-0.61,0-0.916,0
		c-0.759-0.416-0.969-1.07-0.959-1.91c0.032-2.932,0.012-5.861,0.012-8.793c0-0.324,0-0.648,0-0.963c-1.605,0-3.082,0-4.598,0
		c0,3.219-0.018,6.363,0.011,9.508c0.008,0.869-0.148,1.617-0.88,2.158c-0.306,0-0.611,0-0.916,0
		c-0.767-0.406-0.986-1.057-0.978-1.898c0.032-2.93,0.013-5.861,0.013-8.791c0-0.326,0-0.65,0-0.979c-1.599,0-3.073,0-4.596,0
		c0,3.217-0.015,6.359,0.01,9.502c0.007,0.863-0.134,1.621-0.864,2.166c-0.305,0-0.61,0-0.916,0
		c-0.768-0.398-1.003-1.041-0.99-1.885c0.033-2.404,0.011-4.812,0.011-7.219c0-0.846,0-1.691,0-2.582c-1.574,0-3.048,0-4.608,0
		c0,0.414,0,0.773,0,1.133c-0.001,2.895-0.012,5.787,0.006,8.682c0.005,0.832-0.229,1.49-1.016,1.871c-0.244,0-0.489,0-0.733,0
		c-0.787-0.381-1.02-1.039-1.015-1.871c0.017-2.922,0.008-5.846,0.004-8.77c0-0.35-0.03-0.699-0.046-1.049c-1.559,0-3.007,0-4.552,0
		c0,0.381,0,0.709,0,1.037c0,2.924-0.017,5.848,0.01,8.77c0.008,0.842-0.231,1.486-0.999,1.883c-0.305,0-0.61,0-0.916,0
		c-0.732-0.547-0.863-1.309-0.855-2.168c0.025-2.777,0.009-5.557,0.009-8.336c0-0.385,0-0.77,0-1.164c-1.594,0-3.066,0-4.604,0
		c0,0.404,0,0.736,0,1.068c0,2.9-0.02,5.801,0.012,8.701c0.009,0.842-0.21,1.492-0.977,1.898c-0.306,0-0.611,0-0.917,0
		c-0.681-0.523-0.894-1.221-0.88-2.066c0.034-2.076,0.011-4.154,0.011-6.229c0-1.121,0-2.24,0-3.377c-1.583,0-3.057,0-4.598,0
		c0,0.398,0,0.729,0,1.061c0,2.9-0.021,5.801,0.012,8.701c0.009,0.84-0.201,1.494-0.959,1.91c-0.306,0-0.611,0-0.916,0
		c-0.684-0.516-0.91-1.199-0.899-2.055c0.034-2.895,0.013-5.791,0.013-8.686c0-0.322,0-0.645,0-0.949
		c-2.053-0.246-2.546-0.488-3.954-1.895c-1.833-1.832-3.641-3.689-5.505-5.488c-1.255-1.211-2.355-2.473-2.303-4.414
		c-0.416,0-0.747,0-1.077,0c-2.865,0-5.73-0.021-8.595,0.012c-0.854,0.01-1.537-0.215-2.054-0.898c0-0.307,0-0.611,0-0.916
		c0.417-0.76,1.071-0.969,1.911-0.959c2.931,0.031,5.862,0.012,8.793,0.012c0.324,0,0.648,0,0.962,0c0-1.605,0-3.082,0-4.598
		c-3.219,0-6.363-0.018-9.507,0.01c-0.869,0.008-1.617-0.148-2.159-0.879c0-0.307,0-0.611,0-0.916
		c0.407-0.768,1.057-0.986,1.899-0.979c2.93,0.033,5.861,0.014,8.792,0.014c0.325,0,0.651,0,0.978,0c0-1.6,0-3.074,0-4.596
		c-3.216,0-6.359-0.016-9.501,0.01c-0.863,0.006-1.621-0.133-2.167-0.863c0-0.307,0-0.611,0-0.918c0.398-0.77,1.044-1,1.886-0.99
		c2.467,0.031,4.934,0.012,7.401,0.012c0.785,0,1.57,0,2.398,0c0-1.574,0-3.049,0-4.609c-0.414,0-0.773,0-1.133,0
		c-2.894,0-5.788-0.012-8.681,0.006c-0.833,0.006-1.491-0.229-1.872-1.015c0-0.245,0-0.489,0-0.733
		c0.381-0.785,1.04-1.02,1.871-1.016c2.923,0.018,5.847,0.008,8.77,0.004c0.349,0,0.698-0.029,1.048-0.046c0-1.559,0-3.007,0-4.552
		c-0.378,0-0.707,0-1.036,0c-2.923,0-5.847-0.018-8.77,0.01c-0.842,0.008-1.486-0.23-1.884-0.998c0-0.305,0-0.61,0-0.916
		c0.547-0.732,1.309-0.863,2.168-0.855c2.778,0.025,5.557,0.01,8.335,0.01c0.385,0,0.771,0,1.165,0c0-1.594,0-3.066,0-4.604
		c-0.405,0-0.736,0-1.068,0c-2.9,0-5.801-0.02-8.701,0.012c-0.842,0.01-1.493-0.211-1.899-0.977c0-0.306,0-0.611,0-0.916
		c0.524-0.682,1.222-0.895,2.068-0.881c2.076,0.035,4.152,0.012,6.229,0.012c1.12,0,2.239,0,3.376,0c0-1.583,0-3.057,0-4.598
		c-0.397,0-0.729,0-1.06,0c-2.901-0.001-5.802-0.021-8.702,0.012c-0.839,0.01-1.493-0.201-1.911-0.959c0-0.307,0-0.611,0-0.916
		c0.517-0.685,1.2-0.91,2.054-0.9c2.895,0.035,5.791,0.014,8.687,0.014c0.322,0,0.644,0,0.999,0
		c-0.021-1.709,0.742-2.898,1.838-3.962c1.859-1.804,3.696-3.633,5.495-5.497c1.212-1.256,2.472-2.355,4.415-2.303
		c0-0.416,0-0.746,0-1.076c0-2.865,0.021-5.73-0.013-8.596c-0.01-0.854,0.215-1.537,0.899-2.055c0.305,0,0.61,0,0.916,0
		c0.758,0.418,0.969,1.072,0.959,1.911c-0.033,2.931-0.013,5.862-0.012,8.794c0,0.323,0,0.647,0,0.961c1.605,0,3.082,0,4.598,0
		c0-3.219,0.017-6.363-0.011-9.506c-0.008-0.869,0.148-1.617,0.88-2.16c0.306,0,0.611,0,0.917,0
		c0.766,0.407,0.985,1.057,0.977,1.899c-0.032,2.931-0.012,5.86-0.012,8.792c0,0.324,0,0.65,0,0.977c1.598,0,3.073,0,4.595,0
		c0-3.216,0.015-6.358-0.01-9.501c-0.006-0.862,0.134-1.62,0.864-2.167c0.306,0,0.611,0,0.916,0
		c0.769,0.398,1.003,1.042,0.991,1.885c-0.033,2.406-0.012,4.812-0.012,7.219c0,0.846,0,1.691,0,2.583c1.575,0,3.048,0,4.609,0
		c0-0.413,0-0.773,0-1.133c0-2.894,0.011-5.788-0.006-8.682c-0.005-0.832,0.228-1.491,1.015-1.872c0.244,0,0.489,0,0.733,0
		c0.787,0.381,1.021,1.039,1.016,1.871c-0.018,2.924-0.008,5.848-0.004,8.771c0,0.348,0.03,0.697,0.046,1.047
		c1.56,0,3.007,0,4.553,0c0-0.379,0-0.707,0-1.036c0-2.923,0.017-5.847-0.011-8.771c-0.008-0.842,0.231-1.484,0.998-1.883
		c0.306,0,0.611,0,0.916,0c0.732,0.547,0.863,1.309,0.855,2.169c-0.025,2.778-0.009,5.557-0.009,8.335c0,0.385,0,0.771,0,1.164
		c1.593,0,3.065,0,4.604,0c0-0.404,0-0.736,0-1.067c0-2.9,0.02-5.801-0.013-8.701c-0.009-0.842,0.211-1.492,0.978-1.899
		c0.305,0,0.61,0,0.916,0c0.681,0.525,0.894,1.223,0.88,2.068c-0.034,2.076-0.011,4.152-0.011,6.229c0,1.119,0,2.239,0,3.377
		c1.582,0,3.057,0,4.598,0c0-0.398,0-0.73,0-1.061c0-2.9,0.021-5.802-0.012-8.702c-0.01-0.839,0.2-1.493,0.959-1.911
		c0.306,0,0.61,0,0.916,0c0.684,0.518,0.909,1.201,0.899,2.055c-0.034,2.895-0.013,5.791-0.013,8.688c0,0.32,0,0.643,0,0.996
		c1.705-0.013,2.897,0.74,3.962,1.84c1.803,1.859,3.632,3.695,5.496,5.495c1.256,1.212,2.355,2.472,2.303,4.415
		c0.416,0,0.747,0,1.077,0c2.865,0,5.73,0.021,8.595-0.014c0.854-0.01,1.538,0.216,2.055,0.9c0,0.305,0,0.609,0,0.916
		c-0.417,0.758-1.071,0.969-1.911,0.959c-2.931-0.033-5.861-0.013-8.793-0.012c-0.324,0-0.647,0-0.962,0c0,1.605,0,3.081,0,4.598
		c3.219,0,6.363,0.018,9.507-0.012C95.625,33.901,96.373,34.058,96.915,34.79z M82.424,50.022c0-7.697-0.01-15.395,0.013-23.09
		c0.003-0.926-0.284-1.629-0.942-2.273c-2.118-2.071-4.166-4.216-6.318-6.249c-0.479-0.452-1.275-0.798-1.927-0.8
		c-15.485-0.044-30.97-0.031-46.455-0.043c-0.822-0.001-1.461,0.262-2.035,0.845c-2.08,2.109-4.171,4.208-6.286,6.282
		c-0.634,0.621-0.909,1.305-0.908,2.195c0.016,15.424,0.015,30.848,0.001,46.271c0,0.855,0.27,1.516,0.877,2.113
		c2.112,2.078,4.208,4.174,6.285,6.285c0.598,0.609,1.26,0.877,2.115,0.875c15.424-0.014,30.848-0.014,46.271,0.002
		c0.891,0,1.573-0.277,2.193-0.91c2.031-2.072,4.079-4.129,6.157-6.154c0.685-0.668,0.977-1.395,0.973-2.352
		C82.414,65.354,82.424,57.688,82.424,50.022z"/>
	<path fill-rule="evenodd" clip-rule="evenodd" fill="#474747" d="M72.106,41.19c0-1.525,0-2.952,0-4.474
		c-0.357-0.017-0.682-0.044-1.007-0.044c-2.901-0.004-5.803,0-8.704-0.004c-2.483-0.002-3.466-0.999-3.471-3.511
		c-0.003-1.732,0-3.465,0-5.248c-1.564,0-3.014,0-4.606,0c0,0.476-0.008,0.921,0.001,1.365c0.03,1.486-0.486,2.728-1.565,3.766
		c-1.233,1.185-2.43,2.408-3.63,3.626c-0.972,0.986-2.122,1.516-3.52,1.471c-0.366-0.012-0.736,0.029-1.099-0.006
		c-1.25-0.124-2.206,0.017-2.986,1.326c-0.95,1.594-3.08,2.004-4.827,1.334c-1.668-0.639-2.839-2.414-2.745-4.161
		c0.104-1.924,1.399-3.546,3.204-4.011c1.85-0.477,3.812,0.252,4.73,1.924c0.395,0.719,0.834,0.873,1.573,0.857
		c3.671-0.084,2.578,0.404,5.226-2.182c0.612-0.597,1.211-1.207,1.815-1.812c1.095-1.096,1.305-1.861,0.929-3.551
		c-0.277,0-0.575,0-0.873,0c-6.78,0-13.561-0.001-20.341,0c-1.867,0.001-2.353,0.479-2.353,2.32
		c-0.001,13.225-0.001,26.449,0,39.674c0,1.588,0.287,1.965,1.735,2.316c0.856,0.209,1.292,0.799,1.165,1.576
		c-0.116,0.703-0.743,1.158-1.548,1.123c-1.883-0.082-3.583-1.514-3.957-3.369c-0.101-0.506-0.139-1.031-0.14-1.547
		c-0.007-13.285-0.007-26.572-0.004-39.857c0-3.251,1.729-4.984,4.973-4.984c11.3-0.004,22.601-0.002,33.902,0
		c0.243,0,0.491-0.012,0.731,0.022c0.795,0.11,1.293,0.546,1.321,1.376c0.026,0.766-0.553,1.309-1.435,1.337
		c-0.938,0.03-1.877,0.007-2.87,0.007c0,2.049,0,3.989,0,6c3.443,0,6.872,0,10.368,0c0-1.545,0.05-3.062-0.019-4.576
		c-0.041-0.895-0.741-1.2-1.535-1.455c-0.482-0.154-1.059-0.557-1.243-0.996c-0.382-0.91,0.465-1.754,1.545-1.682
		c1.954,0.132,3.59,1.58,3.93,3.506c0.078,0.449,0.112,0.91,0.112,1.367c0.006,13.316,0.003,26.633,0.008,39.949
		c0,1.254-0.227,2.422-1.079,3.406c-0.926,1.068-2.123,1.518-3.495,1.52c-11.545,0.008-23.089,0.006-34.635,0
		c-1.088-0.002-1.717-0.523-1.733-1.359c-0.018-0.873,0.617-1.379,1.774-1.383c2.285-0.008,4.57-0.002,6.965-0.002
		c-0.006-2.004,0.479-3.904-1.41-5.488c-2.052-1.721-3.814-3.781-5.744-5.652c-1.125-1.092-1.653-2.379-1.625-3.93
		c0.021-1.16-0.029-2.322,0.017-3.48c0.025-0.641-0.118-1.021-0.745-1.355c-1.752-0.932-2.541-2.943-2.025-4.852
		c0.497-1.836,2.221-3.152,4.138-3.156c1.925-0.005,3.596,1.264,4.14,3.142c0.564,1.95-0.282,3.972-2.15,4.954
		c-0.484,0.256-0.566,0.553-0.641,1.047c-0.518,3.396,0.49,6.082,3.298,8.195c1.45,1.092,2.596,2.58,3.921,3.844
		c1.132,1.082,1.68,2.361,1.626,3.922c-0.031,0.906-0.006,1.814-0.006,2.754c0.361,0.023,0.599,0.053,0.836,0.053
		c2.194,0.004,4.388,0.002,6.718,0.002c0-0.887,0.041-1.703-0.009-2.516c-0.107-1.768,0.526-3.172,1.802-4.404
		c2.505-2.418,4.972-4.877,7.385-7.387c1.275-1.326,2.72-1.957,4.562-1.869c1.732,0.082,3.472,0.018,5.283,0.018
		c0-1.549,0-3.02,0-4.609c-0.632,0-1.233,0-1.836,0c-2.229,0-4.459,0.018-6.688-0.01c-0.853-0.01-1.52,0.262-2.111,0.881
		c-1.116,1.172-2.302,2.277-3.42,3.447c-1.035,1.084-2.281,1.584-3.765,1.568c-1.222-0.014-2.444,0.027-3.665-0.014
		c-0.619-0.023-0.961,0.154-1.272,0.736c-0.94,1.756-2.949,2.559-4.847,2.041c-1.844-0.5-3.157-2.209-3.173-4.127
		c-0.017-1.91,1.266-3.611,3.131-4.15c1.949-0.564,3.984,0.279,4.964,2.135c0.256,0.484,0.525,0.652,1.051,0.637
		c1.22-0.033,2.444-0.031,3.665-0.004c0.853,0.021,1.518-0.275,2.106-0.896c1.051-1.107,2.188-2.135,3.221-3.256
		c1.159-1.258,2.55-1.785,4.244-1.752c2.534,0.049,5.07-0.008,7.604,0.026c0.676,0.009,0.916-0.179,0.884-0.876
		c-0.055-1.188-0.016-2.379-0.016-3.676c-0.329-0.025-0.617-0.068-0.906-0.068c-3.971-0.004-7.941,0.006-11.912-0.013
		c-0.542-0.003-0.856,0.118-1.134,0.651c-0.953,1.824-2.957,2.671-4.88,2.154c-1.911-0.515-3.206-2.215-3.188-4.189
		c0.017-1.942,1.307-3.621,3.165-4.119c1.933-0.52,3.914,0.32,4.899,2.126c0.225,0.413,0.417,0.653,0.945,0.649
		c4.123-0.023,8.246-0.013,12.369-0.016C71.68,41.262,71.856,41.221,72.106,41.19z M55.827,72.144c0.383,0,0.651,0,0.92,0
		c4.396,0,8.794,0.004,13.19,0c1.664-0.002,2.202-0.537,2.205-2.191c0.005-3.449,0.003-6.9-0.001-10.35
		c0-0.266-0.033-0.529-0.054-0.84c-2.147,0-4.222-0.035-6.291,0.031c-0.425,0.014-0.917,0.338-1.242,0.658
		c-2.699,2.654-5.377,5.332-8.031,8.031c-0.32,0.324-0.628,0.807-0.665,1.24C55.764,69.81,55.827,70.909,55.827,72.144z
		 M36.833,48.524c-0.003-0.84-0.65-1.502-1.487-1.521c-0.862-0.02-1.586,0.683-1.582,1.535c0.004,0.816,0.685,1.505,1.505,1.523
		C36.146,50.081,36.837,49.401,36.833,48.524z M39.772,36.755c-0.01-0.83-0.679-1.507-1.503-1.521
		c-0.849-0.014-1.576,0.714-1.563,1.565c0.013,0.826,0.684,1.492,1.516,1.502C39.109,38.313,39.783,37.641,39.772,36.755z
		 M54.368,41.118c-0.868,0.023-1.521,0.739-1.48,1.621c0.039,0.838,0.71,1.455,1.561,1.438c0.873-0.02,1.538-0.736,1.49-1.607
		C55.895,41.743,55.193,41.097,54.368,41.118z M47.113,55.856c-0.009-0.844-0.653-1.49-1.497-1.502
		c-0.873-0.014-1.568,0.678-1.556,1.545c0.012,0.832,0.674,1.496,1.506,1.508C46.438,57.421,47.123,56.735,47.113,55.856z"/>
</g>
</svg>
