<?xml version="1.0" encoding="utf-8"?>
<!-- Generator: Adobe Illustrator 16.0.0, SVG Export Plug-In . SVG Version: 6.00 Build 0)  -->
<!DOCTYPE svg PUBLIC "-//W3C//DTD SVG 1.1//EN" "http://www.w3.org/Graphics/SVG/1.1/DTD/svg11.dtd">
<svg version="1.1" id="Layer_1" xmlns="http://www.w3.org/2000/svg" xmlns:xlink="http://www.w3.org/1999/xlink" x="0px" y="0px"
	 width="100px" height="100px" viewBox="0 0 100 100" enable-background="new 0 0 100 100" xml:space="preserve">
<g>
	<path fill-rule="evenodd" clip-rule="evenodd" fill="#474747" d="M6.831,76.632c1.513-2.939,2.883-5.966,4.576-8.798
		c1.854-3.1,2.435-6.316,2.392-9.909c-0.152-12.669-0.06-25.343-0.06-38.015c0-2.255,0.857-3.121,3.09-3.121
		c22.113-0.001,44.228-0.001,66.34,0c2.23,0,3.091,0.87,3.091,3.121c0,14.049-0.007,28.098,0.021,42.147
		c0,0.691,0.195,1.443,0.503,2.066c1.968,3.972,3.994,7.916,6.004,11.868c0.11,0.22,0.252,0.428,0.38,0.641c0,1.461,0,2.923,0,4.385
		c-0.756,1.724-2.122,2.197-3.926,2.195c-26.161-0.032-52.324-0.032-78.485,0c-1.805,0.002-3.172-0.472-3.927-2.195
		C6.831,79.555,6.831,78.093,6.831,76.632z M83.691,19.382c-22.508,0-44.941,0-67.38,0c0,14.273,0,28.482,0,42.736
		c22.474,0,44.907,0,67.38,0C83.691,47.86,83.691,33.651,83.691,19.382z M62.042,75.729c9.3,0,18.491,0,27.769,0
		c-1.768-3.484-3.504-6.878-5.201-10.291c-0.274-0.552-0.578-0.757-1.208-0.756c-22.28,0.02-44.562,0.017-66.843,0.003
		c-0.592-0.003-0.887,0.187-1.148,0.714c-1.598,3.216-3.236,6.412-4.858,9.616c-0.116,0.229-0.22,0.466-0.34,0.721
		c9.331,0,18.537,0,27.747,0c0.43-1.563,0.84-3.08,1.261-4.593c0.43-1.536,1.195-2.137,2.792-2.141
		c5.311-0.01,10.621-0.008,15.932,0c1.652,0.002,2.404,0.59,2.846,2.179C61.208,72.692,61.622,74.203,62.042,75.729z M9.388,78.348
		c-0.011,0.244-0.027,0.41-0.026,0.573c0.008,1.877-0.209,1.739,1.699,1.739c26.069,0,52.139,0,78.209,0
		c0.28,0,0.588,0.065,0.835-0.027c0.211-0.08,0.482-0.327,0.506-0.528c0.067-0.569,0.024-1.154,0.024-1.757
		C63.511,78.348,36.494,78.348,9.388,78.348z M59.413,75.762c-0.354-1.311-0.678-2.582-1.062-3.834
		c-0.055-0.179-0.399-0.38-0.61-0.38c-5.162-0.022-10.326-0.022-15.488,0c-0.21,0-0.55,0.208-0.605,0.388
		c-0.381,1.251-0.706,2.52-1.059,3.826C46.892,75.762,53.115,75.762,59.413,75.762z"/>
	<path fill-rule="evenodd" clip-rule="evenodd" fill="#474747" d="M78.503,24.583c-19.044,0-37.972,0-57.006,0
		c0,0.334,0,0.634,0,0.933c0,3.766,0.002,7.531-0.005,11.297c0,0.333,0.051,0.772-0.131,0.974c-0.323,0.356-0.823,0.804-1.217,0.777
		c-0.399-0.029-0.81-0.55-1.116-0.935c-0.142-0.177-0.058-0.542-0.058-0.822c-0.002-4.075-0.004-8.149-0.001-12.225
		c0.001-1.818,0.736-2.565,2.544-2.565c18.996-0.002,37.993-0.003,56.991,0c1.773,0,2.526,0.748,2.528,2.496
		c0.006,4.13,0.002,8.262,0,12.393c0,0.251,0.071,0.588-0.06,0.739c-0.322,0.374-0.729,0.897-1.128,0.921
		c-0.395,0.024-0.89-0.431-1.21-0.792c-0.18-0.204-0.125-0.643-0.125-0.976c-0.007-3.737-0.006-7.474-0.006-11.212
		C78.503,25.279,78.503,24.974,78.503,24.583z"/>
	<path fill-rule="evenodd" clip-rule="evenodd" fill="#474747" d="M21.497,56.897c19.017,0,37.942,0,57.006,0
		c0-0.287,0-0.58,0-0.875c0-3.735,0-7.472,0.004-11.208c0-0.308-0.017-0.627,0.054-0.92c0.159-0.648,0.581-1.027,1.273-0.992
		c0.686,0.035,1.064,0.445,1.177,1.104c0.033,0.192,0.022,0.392,0.022,0.589c0,4.157,0.004,8.314-0.002,12.473
		c-0.002,1.669-0.735,2.401-2.428,2.401c-19.075,0.003-38.15,0.003-57.225,0c-1.687-0.002-2.408-0.733-2.41-2.418
		c-0.006-4.159-0.002-8.316-0.002-12.475c0-0.167-0.009-0.338,0.014-0.504c0.093-0.703,0.476-1.143,1.204-1.17
		c0.734-0.027,1.142,0.402,1.279,1.088c0.054,0.271,0.033,0.56,0.033,0.84c0.001,3.709,0.001,7.417,0.001,11.125
		C21.497,56.256,21.497,56.558,21.497,56.897z"/>
</g>
</svg>
