<?xml version="1.0" encoding="utf-8"?>
<!-- Generator: Adobe Illustrator 16.0.0, SVG Export Plug-In . SVG Version: 6.00 Build 0)  -->
<!DOCTYPE svg PUBLIC "-//W3C//DTD SVG 1.1//EN" "http://www.w3.org/Graphics/SVG/1.1/DTD/svg11.dtd">
<svg version="1.1" id="Layer_1" xmlns="http://www.w3.org/2000/svg" xmlns:xlink="http://www.w3.org/1999/xlink" x="0px" y="0px"
	 width="100px" height="100px" viewBox="0 0 100 100" enable-background="new 0 0 100 100" xml:space="preserve">
<g>
	<path fill-rule="evenodd" clip-rule="evenodd" fill="#474747" d="M65.891,8.888c0.062,0.046,0.118,0.11,0.188,0.134
		c2.131,0.731,3.086,2.045,3.09,4.327c0.008,6.558,0.003,13.113,0.003,19.671c0,0.316,0,0.634,0,1.02
		c1.817,0.131,3.568,0.24,5.317,0.387c4.476,0.375,8.958,0.724,13.315,1.925c0.206,0.057,0.413,0.112,0.616,0.182
		c2.371,0.814,2.682,1.252,2.682,3.759c0,3.079-0.043,6.156,0.021,9.233c0.027,1.294-0.501,2.17-1.65,2.536
		c-1.803,0.57-3.632,1.109-5.49,1.422c-1.441,0.243-2.652,0.719-3.823,1.61c-7.048,5.358-14.132,10.672-21.229,15.966
		c-1.428,1.065-2.139,2.366-2.09,4.162c0.062,2.272,0.002,4.55,0.02,6.824c0.016,1.814-0.709,3.176-2.278,4.13
		c-2.308,1.402-4.59,2.846-6.869,4.296c-1.022,0.652-2.063,0.907-3.169,0.283c-1.102-0.621-1.431-1.642-1.426-2.852
		c0.017-4.255-0.022-8.512,0.02-12.766c0.018-1.73-0.649-3.003-2.026-4.031c-7.5-5.605-14.973-11.246-22.474-16.85
		c-0.401-0.3-0.957-0.434-1.462-0.546c-1.798-0.401-3.616-0.715-5.402-1.159c-0.709-0.176-1.381-0.56-2.026-0.929
		c-0.594-0.34-0.871-0.915-0.871-1.616c0.003-3.666,0.007-7.333-0.002-11c-0.002-0.897,0.468-1.53,1.228-1.806
		c1.55-0.563,3.116-1.232,4.729-1.441c5.035-0.653,10.094-1.113,15.145-1.646c0.238-0.024,0.477-0.031,0.834-0.055
		c0-0.361,0-0.699,0-1.038c0-6.315,0.06-12.632-0.03-18.947c-0.036-2.558,0.799-4.354,3.311-5.185
		C44.691,8.888,55.29,8.888,65.891,8.888z M88.366,41.682c-2.237,0.429-4.345,0.951-6.483,1.22
		c-7.225,0.906-14.489,1.281-21.766,1.479c-11.213,0.305-22.419,0.169-33.607-0.669c-3.462-0.259-6.916-0.686-10.361-1.128
		c-1.5-0.193-2.971-0.617-4.535-0.954c0,2.185,0,4.319,0,6.455c0,1.669-0.003,1.685,1.646,2.087
		c4.251,1.035,8.595,1.442,12.941,1.728c5.017,0.332,10.043,0.6,15.069,0.711c13.836,0.31,27.662,0.166,41.413-1.668
		c1.713-0.229,3.395-0.7,5.08-1.108c0.236-0.056,0.574-0.389,0.577-0.599C88.38,46.724,88.366,44.212,88.366,41.682z M23.76,54.642
		c0.25,0.193,0.498,0.391,0.751,0.58c6.03,4.529,12.041,9.083,18.101,13.573c2.249,1.665,3.32,3.782,3.274,6.581
		c-0.066,3.986-0.018,7.973-0.016,11.959c0,0.283,0.023,0.567,0.041,0.968c0.323-0.179,0.552-0.294,0.768-0.428
		c2.132-1.33,4.25-2.683,6.397-3.987c0.751-0.455,1.056-1.053,1.046-1.915c-0.025-2.354-0.001-4.708-0.01-7.062
		c-0.01-2.484,1.018-4.42,2.998-5.901c5.718-4.277,11.424-8.571,17.133-12.86c0.67-0.505,1.338-1.016,2.006-1.523
		C58.728,55.816,41.265,55.826,23.76,54.642z M33.597,22.622c0,2.757,0,5.425,0,8.146c10.941,0,21.842,0,32.771,0
		c0-2.731,0-5.419,0-8.146C55.434,22.622,44.556,22.622,33.597,22.622z M66.421,19.797c0-2.311,0.018-4.529-0.01-6.747
		c-0.012-0.967-0.568-1.423-1.645-1.424c-9.84-0.004-19.683-0.004-29.523,0c-1.188,0.001-1.674,0.469-1.682,1.636
		c-0.013,2.005-0.006,4.011,0,6.016c0,0.176,0.055,0.35,0.083,0.52C44.572,19.797,55.447,19.797,66.421,19.797z M66.379,33.617
		c-10.977,0-21.855,0-32.777,0c0,2.605,0,5.159,0,7.795c10.94,0.49,21.836,0.5,32.777-0.003
		C66.379,38.778,66.379,36.223,66.379,33.617z M87.05,39.042c-5.861-1.479-11.826-1.818-17.813-2.227c0,1.525,0,2.95,0,4.448
		C75.263,40.851,81.224,40.5,87.05,39.042z M12.937,39.042c5.849,1.457,11.81,1.809,17.823,2.22c0-1.516,0-2.944,0-4.453
		C24.745,37.228,18.775,37.563,12.937,39.042z"/>
	<path fill-rule="evenodd" clip-rule="evenodd" fill="#474747" d="M21.726,8.888c0.673,0.469,0.863,1.11,0.858,1.924
		c-0.031,4.279-0.014,8.561-0.014,12.842c0,0.287,0,0.574,0,1.122c0.62-0.616,1.076-1.074,1.538-1.526
		c0.769-0.753,1.584-0.833,2.18-0.221c0.588,0.604,0.522,1.381-0.208,2.122c-1.221,1.237-2.45,2.468-3.689,3.689
		c-0.841,0.828-1.508,0.82-2.348-0.012c-1.235-1.226-2.465-2.454-3.69-3.688c-0.715-0.722-0.783-1.524-0.199-2.115
		c0.586-0.594,1.4-0.536,2.12,0.174c0.468,0.461,0.909,0.949,1.362,1.425c0.064-0.03,0.129-0.062,0.194-0.093
		c0-0.279,0-0.56,0-0.839c0-4.281,0.015-8.562-0.013-12.844c-0.005-0.848,0.2-1.514,0.947-1.96
		C21.084,8.888,21.405,8.888,21.726,8.888z"/>
	<path fill-rule="evenodd" clip-rule="evenodd" fill="#474747" d="M79.22,8.888c0.744,0.448,0.952,1.114,0.946,1.962
		c-0.028,4.28-0.013,8.562-0.013,12.843c0,0.28,0,0.56,0,0.841c0.064,0.032,0.129,0.063,0.195,0.095
		c0.471-0.495,0.928-1.004,1.418-1.481c0.68-0.661,1.491-0.699,2.062-0.126c0.564,0.565,0.527,1.388-0.135,2.061
		c-1.257,1.278-2.524,2.548-3.803,3.804c-0.778,0.765-1.465,0.766-2.232,0.01c-1.278-1.258-2.546-2.526-3.804-3.803
		c-0.688-0.697-0.733-1.461-0.159-2.059c0.577-0.6,1.408-0.551,2.119,0.158c0.471,0.47,0.904,0.978,1.354,1.468
		c0.081-0.036,0.162-0.071,0.244-0.105c0-0.273,0-0.548,0-0.821c0-4.308,0.017-8.615-0.016-12.923
		c-0.006-0.812,0.188-1.452,0.857-1.922C78.575,8.888,78.897,8.888,79.22,8.888z"/>
	<path fill-rule="evenodd" clip-rule="evenodd" fill="#474747" d="M60.298,28.059c-0.695,0-1.391,0.027-2.084-0.009
		c-0.82-0.043-1.323-0.558-1.346-1.3c-0.023-0.786,0.475-1.375,1.328-1.403c1.387-0.047,2.779-0.048,4.166,0.003
		c0.848,0.032,1.34,0.637,1.307,1.423c-0.031,0.74-0.536,1.237-1.367,1.28C61.636,28.086,60.966,28.059,60.298,28.059z"/>
	<path fill-rule="evenodd" clip-rule="evenodd" fill="#474747" d="M45.156,28.051c-1.356,0.016-2.031-0.448-2.016-1.369
		c0.017-0.918,0.683-1.361,2.054-1.358c0.266,0,0.536-0.01,0.798,0.026c0.774,0.109,1.287,0.698,1.254,1.41
		c-0.032,0.694-0.539,1.209-1.291,1.287C45.692,28.075,45.423,28.051,45.156,28.051z"/>
	<path fill-rule="evenodd" clip-rule="evenodd" fill="#474747" d="M38.367,28.083c-0.319-0.019-0.644-0.004-0.955-0.062
		c-0.689-0.131-1.073-0.57-1.095-1.273c-0.022-0.702,0.323-1.21,1.009-1.336c0.569-0.104,1.169-0.103,1.749-0.062
		c0.811,0.058,1.296,0.601,1.298,1.346c0.003,0.776-0.511,1.293-1.366,1.361c-0.212,0.018-0.426,0.002-0.639,0.002
		C38.368,28.067,38.368,28.075,38.367,28.083z"/>
	<path fill-rule="evenodd" clip-rule="evenodd" fill="#474747" d="M60.245,17.096c-0.67-0.001-1.338,0.018-2.006-0.007
		c-0.818-0.029-1.333-0.526-1.369-1.274c-0.037-0.778,0.477-1.407,1.296-1.434c1.39-0.045,2.782-0.044,4.172-0.005
		c0.829,0.023,1.353,0.63,1.331,1.406c-0.022,0.783-0.549,1.283-1.418,1.31C61.583,17.113,60.913,17.097,60.245,17.096z"/>
	<path fill-rule="evenodd" clip-rule="evenodd" fill="#474747" d="M45.182,17.097c-1.381,0.002-2.036-0.434-2.042-1.353
		c-0.006-0.922,0.67-1.384,2.027-1.384c0.24,0,0.482-0.012,0.721,0.009c0.811,0.071,1.378,0.661,1.359,1.402
		c-0.02,0.751-0.589,1.282-1.424,1.323C45.61,17.105,45.396,17.097,45.182,17.097z"/>
	<path fill-rule="evenodd" clip-rule="evenodd" fill="#474747" d="M38.314,17.093c-1.393,0.005-2.008-0.415-2.004-1.363
		c0.005-0.941,0.634-1.369,2.021-1.368c0.267,0,0.536-0.016,0.799,0.017c0.771,0.096,1.266,0.668,1.243,1.409
		c-0.022,0.747-0.536,1.251-1.339,1.304C38.795,17.107,38.554,17.093,38.314,17.093z"/>
	<path fill-rule="evenodd" clip-rule="evenodd" fill="#474747" d="M60.29,36.315c0.668,0,1.337-0.021,2.004,0.006
		c0.827,0.032,1.338,0.523,1.373,1.269c0.037,0.774-0.467,1.407-1.296,1.436c-1.413,0.05-2.833,0.05-4.247-0.007
		c-0.791-0.031-1.273-0.646-1.256-1.391c0.02-0.749,0.529-1.248,1.337-1.31c0.054-0.004,0.106-0.007,0.159-0.007
		c0.643,0,1.283,0,1.926,0C60.29,36.313,60.29,36.315,60.29,36.315z"/>
	<path fill-rule="evenodd" clip-rule="evenodd" fill="#474747" d="M45.216,36.312c0.187,0.001,0.375-0.006,0.561,0.002
		c0.889,0.038,1.473,0.578,1.47,1.356c-0.002,0.74-0.564,1.307-1.394,1.369c-0.398,0.03-0.801,0.024-1.201,0.006
		c-0.928-0.042-1.537-0.623-1.51-1.418c0.026-0.774,0.611-1.283,1.514-1.315C44.843,36.306,45.03,36.311,45.216,36.312z"/>
	<path fill-rule="evenodd" clip-rule="evenodd" fill="#474747" d="M38.343,36.326c0.267,0,0.535-0.022,0.799,0.004
		c0.711,0.07,1.195,0.56,1.228,1.239c0.036,0.743-0.323,1.273-1.037,1.399c-0.619,0.107-1.279,0.101-1.906,0.023
		c-0.734-0.091-1.157-0.705-1.112-1.424c0.044-0.711,0.54-1.188,1.309-1.247c0.238-0.018,0.479-0.003,0.72-0.003
		C38.343,36.321,38.343,36.323,38.343,36.326z"/>
</g>
</svg>
