<?xml version="1.0" encoding="utf-8"?>
<!-- Generator: Adobe Illustrator 16.0.0, SVG Export Plug-In . SVG Version: 6.00 Build 0)  -->
<!DOCTYPE svg PUBLIC "-//W3C//DTD SVG 1.1//EN" "http://www.w3.org/Graphics/SVG/1.1/DTD/svg11.dtd">
<svg version="1.1" id="Layer_1" xmlns="http://www.w3.org/2000/svg" xmlns:xlink="http://www.w3.org/1999/xlink" x="0px" y="0px"
	 width="100px" height="100px" viewBox="0 0 100 100" enable-background="new 0 0 100 100" xml:space="preserve">
<g>
	<path fill-rule="evenodd" clip-rule="evenodd" fill="#474747" d="M97.154,71.388c-0.243,0.589-0.429,1.21-0.741,1.76
		c-1.172,2.057-3.003,2.983-5.336,2.983c-8.933,0-17.865,0-26.798,0c-0.362,0-0.724,0-1.172,0c0.438,2.552,0.845,4.992,1.301,7.424
		c0.033,0.18,0.416,0.398,0.652,0.418c0.793,0.068,1.598,0.004,2.389,0.086c2.117,0.217,3.717,2.037,3.686,4.131
		c-0.03,2.117-1.654,3.869-3.77,4.062c-0.244,0.023-0.49,0.029-0.735,0.029c-11.081,0-22.162,0.004-33.243-0.002
		c-2.441-0.002-4.087-1.318-4.458-3.525c-0.367-2.191,1.209-4.381,3.422-4.666c0.848-0.109,1.718-0.033,2.57-0.117
		c0.249-0.025,0.643-0.283,0.682-0.488c0.455-2.404,0.855-4.818,1.291-7.352c-1.293,0-2.514,0-3.734,0
		c-1.473,0-2.946,0.003-4.42-0.001c-1.23-0.004-1.902-0.49-1.916-1.374c-0.013-0.881,0.659-1.386,1.885-1.386
		c9.607-0.003,19.215-0.002,28.822-0.002c10.959,0,21.917,0,32.875,0c3.177,0,4.274-1.256,3.91-4.542c-29.53,0-59.068,0-88.869,0
		c0.201,1.063,0.225,2.13,0.619,3.034c0.494,1.136,1.607,1.514,2.834,1.511c4.053-0.009,8.104-0.004,12.156-0.002
		c0.337,0.001,0.68-0.014,1.01,0.041c0.654,0.108,1.033,0.525,1.097,1.181c0.067,0.692-0.229,1.212-0.903,1.421
		c-0.342,0.106-0.725,0.113-1.088,0.114c-3.96,0.008-7.92,0.005-11.879,0.005c-3.432-0.001-5.291-1.354-6.333-4.604
		c-0.017-0.053-0.075-0.093-0.112-0.14c0-19.647,0-39.295,0-58.943c0.11-0.279,0.223-0.557,0.332-0.835
		c0.883-2.268,2.516-3.564,4.949-3.816c0.365-0.038,0.736-0.033,1.104-0.033C28.294,7.759,47.355,7.759,66.417,7.76
		c0.276,0,0.554-0.005,0.828,0.017c0.795,0.062,1.229,0.53,1.313,1.291c0.078,0.707-0.484,1.317-1.277,1.417
		c-0.394,0.05-0.797,0.037-1.195,0.037c-18.908,0.001-37.816,0.001-56.725,0.001c-2.749,0-3.753,1.014-3.753,3.789
		c0,16.821,0,33.643,0,50.464c0,0.365,0,0.73,0,1.159c29.602,0,59.142,0,88.783,0c0-0.358,0-0.687,0-1.015
		c0-16.944,0-33.888,0-50.833c0-2.483-1.094-3.563-3.609-3.564c-5.463-0.002-10.927,0-16.391-0.001c-1.5,0-2.142-0.438-2.116-1.429
		c0.023-0.956,0.615-1.333,2.103-1.333c5.187-0.001,10.377,0.108,15.561-0.037c3.615-0.102,6.113,1.154,7.216,4.722
		C97.154,32.092,97.154,51.74,97.154,71.388z M61.656,84.012c-0.468-2.703-0.909-5.254-1.354-7.827c-6.901,0-13.733,0-20.607,0
		c-0.447,2.596-0.886,5.146-1.344,7.808c0.472,0,0.803,0,1.135,0c3.715,0,7.429,0,11.143,0.004c0.367,0,0.744-0.004,1.1,0.068
		c0.736,0.152,1.098,0.648,1.066,1.391c-0.03,0.703-0.421,1.143-1.117,1.256c-0.331,0.055-0.674,0.043-1.01,0.043
		c-5.618,0.002-11.236,0-16.854,0.006c-0.396,0-0.896-0.082-1.166,0.117c-0.42,0.312-0.874,0.799-0.964,1.277
		c-0.12,0.639,0.333,1.158,1.03,1.307c0.266,0.059,0.549,0.055,0.824,0.055c10.99,0.004,21.979,0.004,32.97,0
		c0.244,0,0.494,0,0.733-0.045c0.704-0.127,1.08-0.605,1.105-1.279c0.025-0.676-0.326-1.186-1.019-1.348
		c-0.353-0.082-0.73-0.084-1.097-0.084c-2.517-0.008-5.034-0.004-7.552-0.004c-0.245,0-0.492,0.01-0.736-0.01
		c-0.866-0.062-1.43-0.615-1.419-1.379c0.01-0.727,0.534-1.309,1.358-1.342C59.1,83.977,60.318,84.012,61.656,84.012z"/>
</g>
</svg>
