<?xml version="1.0" encoding="utf-8"?>
<!-- Generator: Adobe Illustrator 16.0.0, SVG Export Plug-In . SVG Version: 6.00 Build 0)  -->
<!DOCTYPE svg PUBLIC "-//W3C//DTD SVG 1.1//EN" "http://www.w3.org/Graphics/SVG/1.1/DTD/svg11.dtd">
<svg version="1.1" id="Layer_1" xmlns="http://www.w3.org/2000/svg" xmlns:xlink="http://www.w3.org/1999/xlink" x="0px" y="0px"
	 width="100px" height="100px" viewBox="0 0 100 100" enable-background="new 0 0 100 100" xml:space="preserve">
<g>
	<g>
		<path fill-rule="evenodd" clip-rule="evenodd" fill="#474747" d="M48.787,90.933c-0.332,0-0.666,0-1,0
			c-5.792,0-11.584,0.004-17.375-0.002c-2.89-0.002-4.592-1.693-4.598-4.559c-0.004-1.414-0.001-2.828-0.001-4.305
			c-1.688-0.195-3.339-0.336-4.973-0.584c-2.933-0.441-5.817-1.104-8.421-2.594c-0.834-0.479-1.61-1.102-2.305-1.77
			C9.346,76.378,8.999,75.401,9,74.303c0.006-12.149,0.006-24.299,0.001-36.449C9,36.219,9.838,35.053,11.064,34.122
			c2.047-1.557,4.434-2.354,6.901-2.898c7.478-1.651,14.933-1.604,22.286,0.639c1.626,0.495,3.176,1.358,4.629,2.264
			c1.47,0.914,2.111,2.359,2.105,4.171c-0.037,11.867-0.034,23.733-0.002,35.599c0.005,1.734-0.667,3.037-1.988,4.059
			c-2.275,1.758-4.943,2.631-7.709,3.115c-2.996,0.521-6.033,0.809-9.199,1.217c0,1.447-0.034,3.016,0.012,4.582
			c0.029,0.984,0.773,1.684,1.752,1.783c0.25,0.025,0.504,0.014,0.755,0.014c12.905,0.002,25.812,0.002,38.717,0
			c1.984,0,2.574-0.596,2.576-2.598c0.001-1.289,0-2.578,0-3.961c-1.299-0.08-2.575-0.131-3.846-0.242
			c-3.934-0.348-7.808-0.977-11.361-2.828c-0.826-0.43-1.602-1.002-2.299-1.623c-0.956-0.852-1.393-1.962-1.391-3.277
			C53.019,62.11,53.022,50.087,53,38.063c-0.003-1.711,0.773-2.945,2.057-3.929c1.912-1.464,4.139-2.247,6.444-2.787
			c7.622-1.784,15.229-1.753,22.744,0.523c1.654,0.501,3.225,1.397,4.702,2.323c1.438,0.9,2.053,2.334,2.047,4.105
			C90.959,50.103,90.951,61.906,91,73.71c0.009,2.01-0.798,3.436-2.372,4.533c-2.213,1.539-4.729,2.346-7.334,2.838
			c-2.312,0.436-4.657,0.701-7.128,1.062c0,1.305,0.001,2.707,0,4.109c-0.004,3.004-1.67,4.678-4.669,4.68
			c-6.073,0.002-12.147,0-18.298,0 M44.699,41.546c-5.283,3.05-10.971,3.704-16.768,3.704c-5.781,0-11.445-0.693-16.66-3.693
			c0,2.609,0.055,5.096-0.021,7.579c-0.039,1.256,0.456,2.109,1.445,2.762c0.342,0.225,0.691,0.437,1.045,0.641
			c0.887,0.509,1.143,1.077,0.764,1.728c-0.377,0.646-0.967,0.716-1.883,0.217c-0.426-0.23-0.848-0.471-1.352-0.752
			c0,2.363,0.164,4.611-0.046,6.825c-0.211,2.229,0.88,3.403,2.653,4.271c0.451,0.221,0.906,0.445,1.379,0.607
			c7.539,2.602,15.195,2.641,22.868,0.797c1.854-0.445,3.601-1.424,5.326-2.295c0.906-0.457,1.304-1.34,1.271-2.45
			c-0.066-2.327-0.018-4.657-0.023-6.987c0-0.226-0.047-0.451-0.066-0.621c-1.173,0.541-2.252,1.133-3.396,1.551
			c-4.926,1.797-10.052,2.201-15.241,2.035c-1.444-0.047-2.886-0.224-4.325-0.373c-0.901-0.094-1.422-0.621-1.297-1.295
			c0.151-0.809,0.718-1.045,1.477-0.951c0.218,0.027,0.438,0.035,0.657,0.061c4.946,0.6,9.863,0.443,14.733-0.637
			c2.154-0.479,4.257-1.137,6.082-2.447c0.73-0.523,1.374-1.134,1.377-2.129C44.705,47.017,44.699,44.343,44.699,41.546z
			 M44.696,65.987c-5.268,3.072-10.94,3.72-16.698,3.725c-5.783,0.004-11.479-0.667-16.729-3.72c0,2.694,0.035,5.296-0.018,7.895
			c-0.02,0.991,0.323,1.779,1.113,2.247c1.236,0.73,2.496,1.514,3.852,1.932c7.333,2.262,14.755,2.299,22.158,0.408
			c1.762-0.451,3.433-1.357,5.048-2.234c0.573-0.311,1.188-1.143,1.217-1.764C44.77,71.688,44.696,68.89,44.696,65.987z
			 M88.707,65.987c-5.259,3.068-10.93,3.719-16.686,3.725c-5.786,0.006-11.481-0.662-16.743-3.723c0,2.688,0.034,5.287-0.018,7.883
			c-0.02,0.988,0.31,1.783,1.103,2.252c1.235,0.73,2.493,1.52,3.848,1.938c7.333,2.264,14.755,2.301,22.159,0.416
			c1.763-0.449,3.439-1.346,5.048-2.232c0.59-0.324,1.199-1.197,1.231-1.85C88.785,71.637,88.707,68.867,88.707,65.987z
			 M88.707,41.545c-5.27,3.043-10.927,3.699-16.693,3.705c-5.796,0.004-11.477-0.67-16.735-3.703c0,2.659,0.034,5.229-0.018,7.798
			c-0.02,0.989,0.313,1.779,1.106,2.25c1.206,0.72,2.436,1.489,3.76,1.907c7.133,2.249,14.363,2.248,21.62,0.639
			c2.004-0.443,3.975-1.067,5.605-2.357c0.59-0.467,1.257-1.255,1.294-1.929C88.792,47.128,88.707,44.387,88.707,41.545z
			 M88.708,53.772c-5.295,3.047-10.979,3.711-16.771,3.707c-5.78-0.003-11.45-0.693-16.658-3.703c0,2.653,0.039,5.201-0.02,7.746
			c-0.023,1.026,0.323,1.838,1.146,2.324c1.235,0.729,2.497,1.508,3.852,1.924c7.232,2.224,14.556,2.259,21.871,0.475
			c1.713-0.418,3.343-1.242,4.942-2.022c0.83-0.405,1.617-1.073,1.629-2.153C88.726,59.337,88.708,56.604,88.708,53.772z
			 M72.034,43.004c0.013,0.088,0.024,0.175,0.036,0.262c3.139-0.419,6.294-0.744,9.41-1.29c2.199-0.386,4.326-1.139,6.12-2.556
			c1.499-1.183,1.535-2.35-0.022-3.426c-1.121-0.775-2.373-1.471-3.669-1.869c-7.714-2.375-15.493-2.381-23.23-0.164
			c-1.614,0.463-3.146,1.403-4.544,2.372c-1.157,0.802-1.11,1.865-0.004,2.762c0.888,0.72,1.911,1.338,2.967,1.776
			C63.234,42.586,67.609,42.979,72.034,43.004z M27.939,42.999c0.012,0.09,0.023,0.18,0.035,0.27
			c3.17-0.424,6.357-0.746,9.502-1.309c2.227-0.398,4.385-1.164,6.176-2.648c1.312-1.086,1.375-2.199-0.004-3.178
			c-1.186-0.842-2.518-1.594-3.896-2.025c-7.291-2.283-14.67-2.259-22.062-0.496c-1.963,0.469-3.863,1.158-5.444,2.477
			c-1.317,1.1-1.376,2.174,0.007,3.176c1.127,0.817,2.408,1.494,3.717,1.971C19.825,42.638,23.861,43.004,27.939,42.999z"/>
		<path fill-rule="evenodd" clip-rule="evenodd" fill="#474747" d="M27.679,63.483c-1.759-0.14-3.823-0.284-5.886-0.478
			c-0.901-0.085-1.361-0.618-1.249-1.306c0.113-0.693,0.696-0.957,1.593-0.935c3.383,0.085,6.768,0.118,10.152,0.169
			c0.188,0.002,0.377-0.025,0.564-0.029c0.701-0.018,1.178,0.315,1.242,1.012c0.069,0.754-0.389,1.184-1.117,1.238
			C31.32,63.28,29.658,63.364,27.679,63.483z"/>
		<path fill-rule="evenodd" clip-rule="evenodd" fill="#474747" d="M27.832,51.441c-1.833-0.128-3.711-0.256-5.59-0.393
			c-0.248-0.019-0.498-0.066-0.742-0.121c-0.686-0.153-1.06-0.593-0.945-1.286c0.115-0.695,0.625-0.979,1.313-0.924
			c1.22,0.098,2.438,0.289,3.657,0.293c2.352,0.008,4.703-0.075,7.055-0.15c0.877-0.028,1.51,0.326,1.521,1.019
			c0.015,0.803-0.461,1.186-1.237,1.236C31.205,51.222,29.545,51.331,27.832,51.441z"/>
		<path fill-rule="evenodd" clip-rule="evenodd" fill="#474747" d="M38.209,63.596c-1.539-0.046-2.701-1.293-2.648-2.843
			c0.051-1.474,1.312-2.676,2.773-2.646c1.502,0.031,2.754,1.336,2.712,2.825C41.002,62.464,39.748,63.642,38.209,63.596z"/>
		<path fill-rule="evenodd" clip-rule="evenodd" fill="#474747" d="M38.33,46.093c1.529,0.023,2.758,1.287,2.716,2.794
			c-0.041,1.476-1.284,2.696-2.741,2.692c-1.56-0.005-2.797-1.294-2.744-2.863C35.609,47.221,36.826,46.07,38.33,46.093z"/>
		<path fill-rule="evenodd" clip-rule="evenodd" fill="#474747" d="M27.59,75.533c-1.74-0.14-3.771-0.301-5.804-0.464
			c-0.757-0.061-1.264-0.407-1.25-1.227c0.013-0.715,0.591-1.138,1.494-1.021c3.536,0.456,7.074,0.473,10.619,0.15
			c0.765-0.07,1.312,0.186,1.444,0.989c0.111,0.681-0.424,1.206-1.312,1.269C31.153,75.346,29.523,75.423,27.59,75.533z"/>
		<path fill-rule="evenodd" clip-rule="evenodd" fill="#474747" d="M38.214,75.646c-1.526-0.035-2.711-1.3-2.655-2.835
			c0.055-1.49,1.287-2.67,2.763-2.647c1.51,0.023,2.749,1.299,2.723,2.804C41.018,74.482,39.751,75.682,38.214,75.646z"/>
		<path fill-rule="evenodd" clip-rule="evenodd" fill="#474747" d="M71.66,75.532c-1.755-0.14-3.789-0.299-5.822-0.466
			c-0.768-0.062-1.283-0.455-1.209-1.257c0.076-0.808,0.662-1.099,1.426-0.998c3.568,0.471,7.143,0.482,10.722,0.16
			c0.76-0.068,1.336,0.181,1.396,1.021c0.059,0.836-0.493,1.18-1.236,1.231C75.275,75.339,73.612,75.421,71.66,75.532z"/>
		<path fill-rule="evenodd" clip-rule="evenodd" fill="#474747" d="M82.312,75.646c-1.527-0.033-2.712-1.283-2.675-2.824
			c0.035-1.479,1.267-2.667,2.753-2.658c1.521,0.011,2.75,1.266,2.729,2.787C85.098,74.475,83.845,75.679,82.312,75.646z"/>
		<path fill-rule="evenodd" clip-rule="evenodd" fill="#474747" d="M71.959,51.442c-1.856-0.131-3.798-0.266-5.739-0.403
			c-0.125-0.009-0.249-0.036-0.372-0.057c-0.917-0.166-1.374-0.646-1.214-1.34c0.183-0.799,0.745-0.987,1.505-0.904
			c1.154,0.126,2.314,0.275,3.472,0.275c2.352,0.001,4.704-0.076,7.055-0.152c0.902-0.029,1.475,0.307,1.5,1.03
			c0.028,0.826-0.455,1.176-1.228,1.227C75.309,51.222,73.68,51.329,71.959,51.442z"/>
		<path fill-rule="evenodd" clip-rule="evenodd" fill="#474747" d="M85.119,48.798c0.015,1.511-1.247,2.792-2.739,2.783
			c-1.521-0.01-2.749-1.251-2.744-2.775c0.006-1.494,1.188-2.688,2.687-2.713C83.854,46.068,85.104,47.278,85.119,48.798z"/>
		<path fill-rule="evenodd" clip-rule="evenodd" fill="#474747" d="M71.731,63.484c-1.771-0.142-3.834-0.31-5.896-0.474
			c-0.779-0.061-1.243-0.448-1.203-1.255c0.034-0.702,0.665-1.017,1.534-0.995c3.412,0.082,6.825,0.119,10.238,0.171
			c0.156,0.003,0.312-0.021,0.47-0.026c0.733-0.022,1.241,0.281,1.287,1.052c0.047,0.769-0.423,1.154-1.149,1.205
			C75.354,63.277,73.693,63.366,71.731,63.484z"/>
		<path fill-rule="evenodd" clip-rule="evenodd" fill="#474747" d="M82.266,63.593c-1.536-0.06-2.688-1.314-2.628-2.863
			c0.057-1.466,1.34-2.666,2.8-2.621c1.515,0.048,2.726,1.332,2.682,2.845C85.075,62.476,83.803,63.651,82.266,63.593z"/>
	</g>
	<g>
		<g>
			<path fill="#474747" d="M76.7,13.754c-1.375-1.393-2.76-2.779-4.154-4.154c-0.617-0.609-1.201-0.711-1.693-0.232
				c-0.202,0.195-0.306,0.414-0.309,0.648c-0.004,0.338,0.191,0.719,0.566,1.102c0.343,0.35,0.688,0.697,1.09,1.1l1.475,1.484
				l-9.997,0.006c-2.318,0-23.666-0.004-25.982-0.021c-0.816,0-1.695,0.186-1.695,0.633v0.403v0.247
				c0,0.448,0.879,0.634,1.695,0.634c2.316-0.017,23.604-0.021,25.922-0.021l10.027,0.006l-1.46,1.486
				c-0.401,0.402-0.739,0.752-1.082,1.102c-0.375,0.383-0.566,0.77-0.562,1.107c0.003,0.234,0.108,0.463,0.311,0.658
				c0.492,0.479,1.077,0.396,1.694-0.214c1.395-1.375,2.78-2.722,4.155-4.115c0.369-0.375,0.553-0.546,0.553-0.89
				C77.253,14.426,77.069,14.129,76.7,13.754z"/>
		</g>
		<g>
			<path fill="#474747" d="M23.3,21.561c1.375,1.395,2.76,2.779,4.154,4.154c0.617,0.609,1.201,0.711,1.693,0.232
				c0.202-0.195,0.306-0.414,0.309-0.648c0.004-0.338-0.191-0.719-0.566-1.102c-0.343-0.35-0.688-0.697-1.09-1.1l-1.475-1.484
				l9.997-0.006c2.318,0,24.166,0.006,26.482,0.021c0.816,0,2.195-0.186,2.195-0.633v-0.402v-0.248c0-0.447-1.379-0.633-2.195-0.633
				c-2.316,0.017-23.854,0.021-26.172,0.021L26.48,19.729l1.397-1.486c0.401-0.402,0.708-0.752,1.051-1.102
				c0.375-0.383,0.551-0.77,0.547-1.107c-0.003-0.234-0.116-0.463-0.318-0.658c-0.492-0.479-1.081-0.396-1.698,0.214
				c-1.395,1.375-2.781,2.722-4.156,4.115c-0.369,0.374-0.555,0.546-0.555,0.89C22.748,20.891,22.931,21.187,23.3,21.561z"/>
		</g>
	</g>
</g>
</svg>
