<?xml version="1.0" encoding="utf-8"?>
<!-- Generator: Adobe Illustrator 16.0.0, SVG Export Plug-In . SVG Version: 6.00 Build 0)  -->
<!DOCTYPE svg PUBLIC "-//W3C//DTD SVG 1.1//EN" "http://www.w3.org/Graphics/SVG/1.1/DTD/svg11.dtd">
<svg version="1.1" id="Layer_1" xmlns="http://www.w3.org/2000/svg" xmlns:xlink="http://www.w3.org/1999/xlink" x="0px" y="0px"
	 width="100px" height="100px" viewBox="0 0 100 100" enable-background="new 0 0 100 100" xml:space="preserve">
<g>
	<path fill="#474747" d="M7.726,41.226l-0.088-0.218C6.063,37.04,5.06,32.944,4.653,28.832C3.897,21.17,4.981,13.726,7.875,6.706
		C8.094,6.174,8.12,5.662,7.951,5.262C7.816,4.944,7.561,4.702,7.21,4.563C7.022,4.489,6.837,4.451,6.659,4.451
		c-0.602,0-1.107,0.423-1.425,1.192c-1.401,3.392-2.365,6.798-2.929,10.112c-1.073,6.302-0.29,13.962-0.146,14.869
		c0.327,2.048,0.665,4.166,1.136,6.212c0.369,1.617,0.979,3.216,1.567,4.763c0.153,0.403,0.307,0.805,0.455,1.208
		c0.323,0.875,1.063,1.246,1.85,0.933c0.812-0.322,1.091-1.082,0.745-2.033C7.854,41.544,7.79,41.385,7.726,41.226z"/>
	<path fill="#474747" d="M97.701,17.842c-0.345-1.864-0.563-3.814-1.006-5.678c-0.451-1.898-1.147-3.781-1.821-5.602
		c-0.146-0.397-0.294-0.794-0.438-1.191c-0.206-0.567-0.694-0.919-1.276-0.919c-0.191,0-0.383,0.038-0.568,0.113
		c-0.73,0.297-1.032,1.059-0.749,1.896c0.068,0.204,0.15,0.403,0.232,0.603l0.108,0.266c1.345,3.374,2.271,6.866,2.757,10.381
		c1.131,8.2,0.125,16.219-2.989,23.833c-0.236,0.579-0.272,1.094-0.104,1.49c0.137,0.319,0.402,0.559,0.791,0.711
		c0.805,0.316,1.526-0.099,1.944-1.12c1.398-3.397,2.382-6.8,2.922-10.115c0.197-1.208,0.361-2.443,0.52-3.638
		C98.099,28.309,98.65,22.987,97.701,17.842z"/>
	<path fill="#474747" d="M86.53,56.66c0.019-2.4-0.803-4.438-2.514-6.227c-1.429-1.495-3.199-2.733-5.573-3.896
		c-5.839-2.861-12.116-3.981-16.935-4.638l-0.848-0.115c-1.048-0.153-1.787,0.313-1.926,1.177c-0.058,0.362,0.024,0.702,0.238,0.985
		c0.271,0.358,0.729,0.594,1.287,0.662c5.409,0.659,9.735,1.634,13.614,3.069c2.826,1.044,5.758,2.336,8.054,4.699
		c1.192,1.228,1.784,2.482,1.758,3.727c-0.026,1.213-0.64,2.394-1.821,3.508c-1.168,1.103-2.595,2.116-4.127,2.933
		c-5.366,2.856-11.229,3.958-15.737,4.598c-7.469,1.063-15.164,1.122-22.862,0.182c-6.153-0.751-11.086-2.021-15.522-3.997
		c-1.744-0.776-3.977-1.906-5.764-3.759c-2.299-2.384-2.303-4.836-0.012-7.092c0.998-0.983,2.257-1.911,3.849-2.833
		c2.954-1.712,6.278-2.686,9.162-3.463c0.508-0.138,0.881-0.391,1.078-0.733c0.173-0.302,0.207-0.673,0.097-1.075
		c-0.168-0.622-0.676-1.008-1.322-1.008c-0.15,0-0.308,0.02-0.468,0.061c-3.879,0.985-8.377,2.373-12.327,5.19
		c-3.384,2.414-4.861,5.238-4.652,8.888c0.146,2.548,0.11,5.144,0.075,7.654c-0.015,1.123-0.03,2.245-0.03,3.365
		c0,1.189,0.004,2.378,0.008,3.566c0.009,2.783,0.019,5.659-0.024,8.489c-0.039,2.44,0.751,4.416,2.346,5.87
		c1.862,1.698,3.556,2.949,5.178,3.824c5.943,3.208,12.413,4.344,17.959,5.031c5.773,0.717,11.903,0.848,18.322,0.388
		c6.178-0.441,11.539-1.441,16.388-3.056c3.056-1.018,6.962-2.559,10.068-5.473c2.039-1.912,3.017-4.159,2.988-6.871
		C86.463,73.199,86.462,65.469,86.53,56.66z M16.204,62.451l0.352,0.193c0.676,0.373,1.346,0.762,2.015,1.151
		c1.444,0.838,2.938,1.705,4.473,2.398c4.105,1.854,8.705,3.046,14.915,3.863c7.449,0.983,15.042,1.037,22.55,0.17
		c7.796-0.903,13.482-2.467,18.44-5.07c0.992-0.521,1.926-1.129,2.915-1.771c0.457-0.298,0.598-0.599,1.072-0.895L83,62.251v0.456
		c0,1.565-0.52,2.667-1.256,3.452c-1.885,2.008-4.123,3.206-6.436,4.203c-4.819,2.075-9.881,2.983-14.275,3.598
		c-3.645,0.509-7.317,0.768-10.993,0.768c0,0,0.001,0,0,0c-2.54,0-5.1-0.124-7.646-0.367c-6.11-0.584-13.227-1.609-19.764-4.789
		c-1.587-0.771-3.599-1.888-5.13-3.679c-0.656-0.767-1.397-1.805-1.321-3.042L16.204,62.451z M82.03,84.634
		c-1.791,1.869-4.01,3.007-5.741,3.788c-4.221,1.904-9,3.095-15.04,3.898C57.495,92.816,53.69,93,49.943,93
		c-0.001,0-0.001,0-0.002,0c-2.677,0-5.386-0.059-8.054-0.312c-6.146-0.586-13.325-1.621-19.959-5.126
		c-1.524-0.805-2.867-1.908-4.223-3.08c-1.072-0.926-1.607-2.246-1.591-3.938c0.023-2.432,0.02-4.901,0.015-7.293l-0.004-4.544
		l0.412,0.329c3.332,2.664,7.247,4.53,12.316,5.871c6.597,1.743,13.599,2.629,20.811,2.629c2.115,0,4.291-0.076,6.468-0.225
		c7.112-0.488,13.217-1.675,18.661-3.627c3.503-1.256,5.774-2.7,8.134-4.685L83,68.65v1.735c0,0.967,0.342,1.934,0.34,2.9
		c-0.006,2.345,0.159,4.77,0.189,7.152C83.549,82.065,83.175,83.438,82.03,84.634z"/>
	<path fill="#474747" d="M36.503,43.152c2.112,1.602,5.17,2.521,8.39,2.521c3.169,0,6.185-0.896,8.275-2.458
		c2.199-1.642,3.242-3.692,3.191-6.267c-0.054-2.708-0.211-5.461-0.199-8.124c0.006-1.154-0.16-2.308-0.16-3.461v-6.43l0.381-0.035
		c0.354-0.06,0.791-0.09,1.135-0.09c2.033,0,3.764,1.022,4.673,2.803c0.779,1.526,1.224,3.303,1.359,5.591
		c0.067,1.142,0.538,1.696,1.421,1.696c0.963-0.021,1.415-0.6,1.419-1.771l0.006-1.53c0.006-3.262,0.014-6.635-0.02-9.951
		c-0.008-0.815-0.125-1.63-0.339-2.355c-1.002-3.377-3.791-5.417-7.855-5.745c-3.15-0.254-5.643-1.215-7.616-2.939
		c-0.662-0.579-1.457-0.715-2.326-0.406c-0.984,0.351-1.443,1.176-1.443,2.594L46.79,28.152c0,0.247-0.014,0.494-0.028,0.746
		L46.73,29.52l-0.55-0.037c-0.159-0.011-0.281-0.02-0.402-0.024c-0.284-0.011-0.566-0.017-0.847-0.017
		c-3.24,0-5.919,0.771-8.19,2.357c-2.111,1.473-3.297,3.47-3.34,5.621C33.359,39.566,34.46,41.603,36.503,43.152z M37.363,35.007
		c1.309-1.388,3.07-2.243,5.094-2.473c1.483-0.169,3.118-0.16,5.045,0.032c1.493,0.146,1.819-0.32,1.821-1.748
		C49.327,25.21,49,19.604,49,13.997V7.565l0.715,0.25c2.009,1.29,4.221,2.068,6.426,2.378c0.269,0.038,0.62,0.072,0.89,0.107
		c0.854,0.109,1.774,0.223,2.624,0.434c2.291,0.566,3.641,2.126,3.86,4.512c0.051,0.549-0.228,1.104-0.24,1.639
		C63.27,17.125,63,17.365,63,17.604v0.21l0.068,0.039c-0.031,0.006,0.08-0.437,0.055-0.43C63.074,17.437,63.16,17,63.104,17h-0.083
		l-0.094,0.395c-2.143-1.61-4.642-1.977-7.725-1.605c-1.312,0.158-1.672,0.659-1.674,1.916c-0.001,1.528-0.006,3.113-0.01,4.641
		c-0.012,4.654-0.024,9.496,0.034,14.229c0.028,2.259-0.911,3.848-2.874,4.827c-1.953,0.975-3.919,1.476-5.841,1.476
		c-2.089,0-4.165-0.579-6.174-1.729c-0.707-0.405-1.268-1.003-1.613-1.435C35.866,38.231,35.982,36.472,37.363,35.007z"/>
	<path fill="#474747" d="M41.922,57.478c1.263-0.866,2.329-1.993,2.326-3.17c-0.004-1.18-0.519-2.302-1.789-3.161
		c-1.521-1.03-3.672-1.62-6.068-1.62c-2.439,0-4.643,0.615-6.124,1.687c-0.739,0.534-1.372,1.359-1.733,2.209
		c-0.581,1.372,0.1,2.918,1.761,4.033c1.64,1.099,2.862,1.614,5.438,1.621L35,59.33l0,0v-0.254
		C38,59.076,40.42,58.509,41.922,57.478z M36.456,56.227c-1.896,0-4.242-0.445-5.142-1.696l-0.079-0.11l0.048-0.127
		c0.486-1.296,3.052-1.886,5.229-1.886c2.498,0,4.446,0.666,5.21,1.782l0.1,0.146l-0.102,0.144
		C40.806,55.768,38.401,56.227,36.456,56.227z"/>
	<path fill="#474747" d="M56.265,56.699c0.777,0.733,1.643,1.28,2.436,1.542c1.046,0.346,2.162,0.562,3.242,0.771
		c0.458,0.089,0.916,0.178,1.371,0.275c2.86-0.231,5.045-0.922,6.497-2.052c1.048-0.815,1.627-1.848,1.631-2.908
		c0.003-1.045-0.556-2.062-1.575-2.867c-0.553-0.438-1.18-0.797-1.813-1.04c-1.56-0.604-3.15-0.91-4.729-0.91
		c-1.482,0-2.98,0.27-4.451,0.803c-0.92,0.334-1.85,0.913-2.615,1.631c-0.702,0.658-1.09,1.497-1.091,2.364
		C55.165,55.181,55.555,56.03,56.265,56.699z M58.1,54.272c0.548-1.292,3.028-1.869,5.243-1.869c1.956,0,4.342,0.465,5.167,1.77
		l0.077,0.121l-0.064,0.129c-0.634,1.25-3.084,1.81-5.23,1.81c-0.001,0-0.001,0-0.001,0c-1.898,0-4.252-0.45-5.164-1.713
		l-0.083-0.115L58.1,54.272z"/>
	<path fill="#474747" d="M85.642,10.587c-0.162-0.445-0.322-0.889-0.479-1.333c-0.196-0.563-0.707-0.942-1.27-0.942
		c-0.105,0-0.21,0.014-0.312,0.041c-0.76,0.203-1.14,0.668-1.129,1.382c0.005,0.325,0.144,0.678,0.279,1.021l0.025,0.062
		c1.493,3.766,2.346,7.636,2.534,11.5c0.255,5.232-0.604,10.353-2.557,15.22c-0.26,0.65-0.299,1.216-0.112,1.636
		c0.136,0.304,0.386,0.525,0.745,0.658c0.87,0.321,1.153-0.114,1.636-1.307c1.838-4.543,2.896-11.738,2.891-17.03
		c-0.002-2.016-0.431-4.066-0.847-6.062C86.703,13.791,86.211,12.162,85.642,10.587z"/>
	<path fill="#474747" d="M16.441,39.828c0.739-0.277,1.062-1.044,0.788-1.866c-0.121-0.361-0.258-0.716-0.395-1.071
		c-0.136-0.351-0.271-0.702-0.392-1.059c-2.838-8.39-2.62-16.834,0.646-25.097c0.318-0.805,0.467-1.855-0.63-2.292
		c-0.2-0.08-0.391-0.12-0.565-0.12c-0.59,0-1.079,0.467-1.454,1.39c-1.821,4.482-2.792,9.202-2.968,14.429
		c0.073,0.651,0.13,1.342,0.186,2.033c0.125,1.516,0.254,3.083,0.58,4.573c0.533,2.426,1.308,4.847,2.057,7.188l0.332,1.041
		C14.876,39.762,15.659,40.12,16.441,39.828z"/>
	<path fill="#474747" d="M25.731,35.892c0.816-0.333,1.054-1.115,0.652-2.147c-2.485-6.377-2.483-12.839,0.008-19.207
		c0.151-0.387,0.215-0.716,0.188-0.979c-0.09-0.844-0.701-1.138-1.198-1.236c-0.081-0.016-0.161-0.024-0.24-0.024
		c-0.574,0-1.069,0.41-1.36,1.125c-1.438,3.552-2.109,7.172-2.112,11.394c0.006,3.128,0.739,6.653,2.063,9.926
		C24.162,35.808,24.895,36.232,25.731,35.892z"/>
	<path fill="#474747" d="M74.065,35.891c0.832,0.346,1.58-0.084,2.006-1.138c1.368-3.391,2.062-6.963,2.064-10.619
		c-0.006-3.635-0.694-7.178-2.045-10.529c-0.24-0.596-0.682-1.307-1.422-1.307c-0.174,0-0.358,0.039-0.552,0.115
		c-1.092,0.434-0.969,1.437-0.672,2.202c2.461,6.345,2.453,12.779-0.02,19.122C73.023,34.771,73.257,35.556,74.065,35.891z"/>
</g>
</svg>
