<?xml version="1.0" encoding="utf-8"?>
<!-- Generator: Adobe Illustrator 16.0.0, SVG Export Plug-In . SVG Version: 6.00 Build 0)  -->
<!DOCTYPE svg PUBLIC "-//W3C//DTD SVG 1.1//EN" "http://www.w3.org/Graphics/SVG/1.1/DTD/svg11.dtd">
<svg version="1.1" id="Layer_1" xmlns="http://www.w3.org/2000/svg" xmlns:xlink="http://www.w3.org/1999/xlink" x="0px" y="0px"
	 width="100px" height="100px" viewBox="0 0 100 100" enable-background="new 0 0 100 100" xml:space="preserve">
<g>
	<path fill-rule="evenodd" clip-rule="evenodd" fill="#474747" d="M99.262,85.646c-0.645,1.333-1.688,1.872-3.176,1.787
		c-1.535-0.088-3.076-0.009-4.617-0.023c-1.85-0.016-2.784-0.943-2.787-2.78c-0.009-3.943-0.003-7.888-0.003-11.831
		c0-0.344,0-0.688,0-1.135c-0.509,0-0.919,0-1.327,0c-22.221,0-44.441,0-66.662-0.002c-0.416,0-0.838,0.019-1.247-0.047
		c-0.728-0.113-1.134-0.6-1.174-1.314c-0.04-0.721,0.324-1.25,1.037-1.422c0.429-0.103,0.889-0.098,1.335-0.099
		c22.188-0.003,44.377-0.003,66.565-0.003c0.446,0,0.893,0,1.405,0c0-2.989,0-5.92,0-8.916c-25.739,0-51.463,0-77.237,0
		c0,2.969,0,5.9,0,8.854c1.168,0.223,2.923-0.403,2.961,1.471c0.041,1.983-1.789,1.305-3.014,1.553c0,0.404,0,0.779,0,1.154
		c0,3.879,0.004,7.76-0.001,11.64c-0.003,1.963-0.912,2.868-2.885,2.88c-1.506,0.009-3.017-0.066-4.52,0.021
		c-1.49,0.088-2.531-0.456-3.178-1.787c0-23.732,0-47.465,0-71.198c1.088-1.8,2.463-2.235,5.188-1.641
		c3.313,0.724,5.204,3.19,5.432,7.125c0.764-0.294,1.498-0.662,2.275-0.863c3.505-0.91,7.076,1.008,8.219,4.432
		c0.456,1.364,0.792,2.77,1.146,4.167c0.219,0.864-0.22,1.609-0.99,1.811c-0.8,0.209-1.527-0.184-1.784-1.044
		c-0.357-1.196-0.643-2.414-0.987-3.614c-0.661-2.307-2.784-3.566-4.95-2.958c-2.198,0.616-3.38,2.718-2.774,5.053
		c0.876,3.378,1.78,6.748,2.706,10.113c0.608,2.208,2.666,3.455,4.798,2.97c2.113-0.481,3.404-2.523,3.02-4.774
		c-0.182-1.063,0.198-1.771,1.041-1.937c0.884-0.173,1.506,0.3,1.754,1.333c0.385,1.602,0.198,2.695-0.96,5.469
		c0.417,0,0.784,0,1.151,0c13.438,0,26.876-0.001,40.314,0.005c0.442,0,0.909,0.01,1.324,0.142c0.658,0.21,0.942,0.743,0.887,1.428
		c-0.053,0.69-0.441,1.132-1.115,1.26c-0.374,0.071-0.767,0.05-1.151,0.05c-8.017,0.002-16.035,0.001-24.053,0.002
		c-3.077,0-4.434,1.369-4.435,4.476c-0.002,2.822,0.016,5.645-0.013,8.466c-0.008,0.7,0.109,1.014,0.933,1.012
		c16.708-0.024,33.417-0.018,50.127-0.021c0.249,0,0.497-0.036,0.838-0.062c0-1.35,0-2.657,0-3.963c0-1.893,0.002-3.785,0-5.677
		c-0.003-2.772-1.439-4.226-4.19-4.229c-3.623-0.004-7.248,0-10.871-0.002c-0.32,0-0.645,0.01-0.96-0.036
		c-0.737-0.107-1.146-0.585-1.196-1.297c-0.05-0.714,0.297-1.249,1.008-1.447c0.332-0.093,0.695-0.101,1.045-0.101
		c3.688-0.006,7.375-0.01,11.064-0.002c4.219,0.009,6.977,2.775,6.986,6.998c0.002,0.832,0.002,1.665,0.002,2.709
		c1.459-0.941,2.965-1.175,4.554-1.208c1.49-0.032,2.537,0.472,3.142,1.842C99.262,62.17,99.262,73.909,99.262,85.646z M8.39,84.48
		c0.018-0.258,0.043-0.475,0.043-0.691C8.436,62.38,8.439,40.971,8.431,19.561C8.43,16.893,6.334,15.2,3.69,15.686
		c0,22.925,0,45.854,0,68.795C5.282,84.48,6.808,84.48,8.39,84.48z M26.299,56.868c0-0.832-0.043-1.567,0.008-2.295
		c0.267-3.851-0.746-7.797,0.923-11.59c-4.161,0-8.263-0.049-12.361,0.02c-2.101,0.036-3.531,1.647-3.543,3.783
		c-0.017,3.141-0.005,6.283-0.001,9.423c0,0.211,0.042,0.422,0.066,0.659C16.355,56.868,21.249,56.868,26.299,56.868z
		 M96.329,84.527c0-11.07,0-21.992,0-32.908c-2.691-0.473-4.756,1.22-4.759,3.904c-0.012,9.428-0.004,18.854-0.002,28.281
		c0,0.217,0.034,0.432,0.057,0.682c0.334,0.016,0.615,0.038,0.898,0.039C93.768,84.53,95.014,84.527,96.329,84.527z M35.027,42.997
		c-0.968,0-1.736-0.062-2.492,0.012c-1.977,0.193-3.325,1.672-3.34,3.675c-0.025,3.204-0.009,6.409-0.005,9.614
		c0.001,0.18,0.049,0.359,0.077,0.553c1.556,0,3.046,0,4.639,0c0-0.408,0-0.756,0-1.101c0-2.532,0.02-5.064-0.006-7.596
		C33.88,46.409,33.932,44.69,35.027,42.997z M12.682,40.498c-0.461-0.884-0.875-1.677-1.303-2.498c0,1.051,0,2.055,0,3.139
		C11.849,40.908,12.241,40.714,12.682,40.498z"/>
</g>
</svg>
