<?xml version="1.0" encoding="utf-8"?>
<!-- Generator: Adobe Illustrator 16.0.0, SVG Export Plug-In . SVG Version: 6.00 Build 0)  -->
<!DOCTYPE svg PUBLIC "-//W3C//DTD SVG 1.1//EN" "http://www.w3.org/Graphics/SVG/1.1/DTD/svg11.dtd">
<svg version="1.1" id="Layer_1" xmlns="http://www.w3.org/2000/svg" xmlns:xlink="http://www.w3.org/1999/xlink" x="0px" y="0px"
	 width="100px" height="100px" viewBox="0 0 100 100" enable-background="new 0 0 100 100" xml:space="preserve">
<g>
	<g>
		<g>
			<path fill-rule="evenodd" clip-rule="evenodd" fill="#474747" d="M71.682,1.735c1.631,0.42,3.136,1.053,4.296,2.353
				c1.403,1.571,1.843,3.433,1.839,5.479c-0.015,8.985-0.006,17.97-0.006,26.955c0,17.938-0.007,35.877,0.008,53.816
				c0.002,2.114-0.431,4.037-1.903,5.644c-1.151,1.257-2.635,1.87-4.233,2.282c-14.454,0-28.908,0-43.362,0
				c-1.632-0.42-3.137-1.053-4.297-2.353c-1.402-1.571-1.842-3.433-1.839-5.479c0.015-8.953,0.007-17.907,0.007-26.861
				c0-17.97,0.006-35.939-0.009-53.91c-0.001-2.115,0.432-4.038,1.903-5.645c1.152-1.257,2.635-1.87,4.234-2.282
				C42.773,1.735,57.228,1.735,71.682,1.735z M74.942,81.297c-0.446,0-0.816,0-1.188,0c-12.662,0-25.325,0-37.987-0.001
				c-0.313,0-0.633,0.022-0.94-0.023c-0.783-0.114-1.27-0.564-1.277-1.376c-0.009-0.812,0.467-1.275,1.248-1.399
				c0.338-0.054,0.689-0.027,1.035-0.027c12.662-0.001,25.325-0.001,37.988-0.001c0.365,0,0.73,0,1.105,0
				c0-20.919,0-41.708,0-62.521c-16.65,0-33.248,0-49.848,0c0,20.859,0,41.646,0,62.525c1.403,0,2.752-0.063,4.09,0.035
				c0.457,0.034,1.047,0.377,1.274,0.759c0.202,0.339,0.159,1.076-0.091,1.366c-0.314,0.366-0.94,0.601-1.449,0.635
				c-1.27,0.087-2.549,0.029-3.827,0.029c0,3.528-0.003,6.919,0.007,10.309c0.001,0.276,0.072,0.561,0.154,0.828
				c0.592,1.937,2.176,3.001,4.486,3.002c12.16,0.003,24.32,0.002,36.479,0.001c1.509,0,3.018,0.028,4.524-0.011
				c2.345-0.06,4.111-1.643,4.188-3.988C75.022,88.113,74.942,84.782,74.942,81.297z M25.068,12.971c16.666,0,33.26,0,49.91,0
				c0-1.299,0.015-2.523-0.002-3.746c-0.041-2.973-1.741-4.659-4.714-4.66C56.755,4.561,43.246,4.563,29.737,4.563
				c-0.188,0-0.377-0.001-0.564,0.008c-2.246,0.111-3.936,1.665-4.086,3.903C24.989,9.942,25.068,11.421,25.068,12.971z"/>
		</g>
		<g>
			<path fill-rule="evenodd" clip-rule="evenodd" fill="#474747" d="M45.782,88.413c-0.029-2.309,1.819-4.227,4.125-4.28
				c2.335-0.055,4.281,1.836,4.312,4.188c0.028,2.309-1.819,4.227-4.125,4.28C47.759,92.655,45.812,90.765,45.782,88.413z
				 M51.376,88.401c0.017-0.752-0.578-1.398-1.318-1.433c-0.734-0.034-1.388,0.569-1.428,1.317
				c-0.042,0.793,0.582,1.472,1.359,1.479C50.729,89.771,51.358,89.151,51.376,88.401z"/>
		</g>
		<g>
			<path fill-rule="evenodd" clip-rule="evenodd" fill="#474747" d="M52.839,10.217c-0.909-0.001-1.819,0.024-2.727-0.008
				c-0.908-0.033-1.471-0.579-1.488-1.369c-0.018-0.832,0.559-1.422,1.514-1.438c1.786-0.029,3.573-0.027,5.36-0.001
				c0.96,0.014,1.544,0.591,1.536,1.417c-0.007,0.821-0.595,1.367-1.562,1.395C54.596,10.238,53.717,10.218,52.839,10.217z"/>
		</g>
		<g>
			<path fill-rule="evenodd" clip-rule="evenodd" fill="#474747" d="M45.714,8.898c-0.047,0.748-0.706,1.346-1.439,1.305
				c-0.787-0.044-1.367-0.734-1.294-1.538c0.069-0.75,0.745-1.322,1.48-1.253C45.212,7.483,45.761,8.134,45.714,8.898z"/>
		</g>
	</g>
	<g>
		<path fill="#474747" d="M41.932,45h-6.863C32.273,45,30,42.727,30,39.932v-6.863C30,30.273,32.273,28,35.068,28h6.863
			C44.727,28,47,30.273,47,33.068v6.863C47,42.727,44.727,45,41.932,45z M35.068,31C33.928,31,33,31.928,33,33.068v6.863
			C33,41.072,33.928,42,35.068,42h6.863C43.072,42,44,41.072,44,39.932v-6.863C44,31.928,43.072,31,41.932,31H35.068z"/>
	</g>
	<g>
		<path fill="#474747" d="M62.932,45h-6.863C53.273,45,51,42.727,51,39.932v-6.863C51,30.273,53.273,28,56.068,28h6.863
			C65.727,28,68,30.273,68,33.068v6.863C68,42.727,65.727,45,62.932,45z M56.068,31C54.928,31,54,31.928,54,33.068v6.863
			C54,41.072,54.928,42,56.068,42h6.863C64.072,42,65,41.072,65,39.932v-6.863C65,31.928,64.072,31,62.932,31H56.068z"/>
	</g>
	<g>
		<path fill="#474747" d="M41.932,66h-6.863C32.273,66,30,63.727,30,60.932v-6.863C30,51.273,32.273,49,35.068,49h6.863
			C44.727,49,47,51.273,47,54.068v6.863C47,63.727,44.727,66,41.932,66z M35.068,52C33.928,52,33,52.928,33,54.068v6.863
			C33,62.072,33.928,63,35.068,63h6.863C43.072,63,44,62.072,44,60.932v-6.863C44,52.928,43.072,52,41.932,52H35.068z"/>
	</g>
	<g>
		<path fill="#474747" d="M63.932,66h-6.863C54.273,66,52,63.727,52,60.932v-6.863C52,51.273,54.273,49,57.068,49h6.863
			C66.727,49,69,51.273,69,54.068v6.863C69,63.727,66.727,66,63.932,66z M57.068,52C55.928,52,55,52.928,55,54.068v6.863
			C55,62.072,55.928,63,57.068,63h6.863C65.072,63,66,62.072,66,60.932v-6.863C66,52.928,65.072,52,63.932,52H57.068z"/>
	</g>
</g>
</svg>
