<?xml version="1.0" encoding="utf-8"?>
<!-- Generator: Adobe Illustrator 16.0.0, SVG Export Plug-In . SVG Version: 6.00 Build 0)  -->
<!DOCTYPE svg PUBLIC "-//W3C//DTD SVG 1.1//EN" "http://www.w3.org/Graphics/SVG/1.1/DTD/svg11.dtd">
<svg version="1.1" id="Layer_1" xmlns="http://www.w3.org/2000/svg" xmlns:xlink="http://www.w3.org/1999/xlink" x="0px" y="0px"
	 width="100px" height="100px" viewBox="0 0 100 100" enable-background="new 0 0 100 100" xml:space="preserve">
<g>
	<path fill="#474747" d="M48.077,45.295l4.109,4.106c0.403,0.408,1.057,0.408,1.464,0h0.003l4.099-4.132
		c1.536-1.537,1.54-4.032,0-5.573l0,0l0,0c-1.295-1.292-3.309-1.524-4.862-0.564c-1.865-1.117-4.282-0.514-5.405,1.347
		C46.555,42.033,46.798,44.014,48.077,45.295L48.077,45.295z M50.865,40.642c0.481,0,0.952,0.183,1.303,0.527
		c0.178,0.178,0.422,0.281,0.676,0.289l0.029,0.003c0.284,0.01,0.563-0.099,0.771-0.303c0.729-0.731,1.912-0.726,2.646,0.002l0,0
		c0.729,0.728,0.729,1.914,0,2.644h-0.002l-3.373,3.4l-3.375-3.373c-0.729-0.729-0.729-1.912,0-2.641
		c0.35-0.353,0.827-0.549,1.32-0.549H50.865z"/>
	<path fill="#474747" d="M28.778,65.074c0.005,2.654,2.153,4.805,4.809,4.807h30.15c2.654-0.002,4.803-2.152,4.806-4.807v-30.15
		c-0.003-2.652-2.151-4.803-4.806-4.803l-20.923-0.005c-0.577,0-1.036,0.465-1.036,1.033c0,0.048,0,0.1,0.005,0.146
		c0.076,0.507,0.512,0.89,1.031,0.89h20.923c1.512,0.003,2.735,1.225,2.735,2.738v30.15c0,1.51-1.224,2.734-2.735,2.734h-30.15
		c-1.515,0-2.733-1.225-2.736-2.734V54.613h3.295l2.971,8.723c0.177,0.541,0.77,0.832,1.308,0.646
		c0.334-0.115,0.582-0.387,0.671-0.727L42.637,49.3l4.311,10.327c0.219,0.529,0.824,0.777,1.352,0.561
		c0.228-0.096,0.41-0.266,0.525-0.482l2.61-5.092h8.535c0.572-0.006,1.032-0.471,1.023-1.045c0-0.562-0.459-1.02-1.023-1.025
		l-9.17,0.002c-0.387,0-0.741,0.215-0.916,0.561l-1.885,3.672l-4.645-11.131c-0.219-0.53-0.822-0.776-1.352-0.56
		c-0.301,0.128-0.524,0.384-0.605,0.703l-3.448,13.578l-2.086-6.119c-0.141-0.422-0.535-0.703-0.979-0.703h-4.034V34.924
		c0-1.514,1.222-2.735,2.733-2.738h2.269c0.571,0,1.033-0.459,1.033-1.037c0-0.041-0.005-0.088-0.01-0.138
		c-0.071-0.509-0.507-0.89-1.023-0.89h-2.269c-2.652,0-4.801,2.151-4.806,4.803V65.074z"/>
	<path fill="#474747" d="M33.843,4.795l-3.015,17.788l-1.014-0.005c-4.732,0.005-8.57,3.842-8.572,8.572v37.696
		c0.002,4.732,3.84,8.57,8.572,8.574h1.014l3.012,17.785c0.005,0.006,0.005,0.018,0.005,0.029c0.454,2.24,2.426,3.855,4.715,3.859
		h20.204c2.287-0.004,4.256-1.619,4.707-3.859c0.005-0.012,0.008-0.023,0.008-0.029l3.018-17.785h1.014
		c4.732-0.004,8.562-3.842,8.569-8.574l0.004-37.696c-0.007-4.729-3.841-8.567-8.573-8.572h-1.014L63.479,4.795
		c0-0.008-0.003-0.018-0.008-0.028c-0.451-2.243-2.418-3.856-4.707-3.861H38.56c-2.289,0.005-4.258,1.618-4.712,3.861
		C33.845,4.777,33.845,4.787,33.843,4.795L33.843,4.795z M67.51,24.647c3.589,0.005,6.496,2.914,6.502,6.502v37.696
		c-0.006,3.588-2.913,6.5-6.502,6.502h-5.463c-0.57-0.002-1.035,0.453-1.041,1.025c-0.004,0.572,0.452,1.043,1.024,1.045
		c0.005,0,0.013,0.002,0.017,0.002l2.355-0.002L61.443,94.84c-0.265,1.271-1.385,2.186-2.68,2.186H38.56
		c-1.3,0-2.42-0.914-2.681-2.186l-2.955-17.422h22.165c0.566,0.004,1.038-0.455,1.042-1.027c0.002-0.568-0.457-1.037-1.028-1.043
		c-0.007,0-0.009,0-0.014,0H29.814c-3.595,0-6.503-2.912-6.503-6.502V31.149c0.004-3.588,2.914-6.497,6.503-6.502H67.51z
		 M38.56,2.973h20.204c1.295,0,2.415,0.917,2.68,2.185l2.951,17.425H32.924l2.955-17.425C36.14,3.89,37.26,2.973,38.56,2.973z"/>
	<path fill="#474747" d="M36.97,13.423c-0.094,0.566,0.287,1.096,0.851,1.19c0.557,0.094,1.089-0.285,1.186-0.841l0.995-5.771
		c0.099-0.564-0.282-1.099-0.847-1.195c-0.559-0.097-1.096,0.281-1.192,0.845L36.97,13.423z"/>
	<path fill="#474747" d="M36.57,16.714l-0.229,1.318c-0.094,0.562,0.276,1.099,0.841,1.201c0.563,0.099,1.099-0.276,1.195-0.838
		c0.002-0.005,0.005-0.01,0.005-0.016l0.225-1.323c0.094-0.562-0.282-1.097-0.849-1.193C37.194,15.77,36.664,16.148,36.57,16.714
		L36.57,16.714z"/>
	<path fill="#474747" d="M77.721,39.686c-0.568,0-1.034,0.465-1.034,1.034v4.725c0,0.572,0.466,1.038,1.034,1.038
		s1.037-0.466,1.037-1.038l0,0V40.72C78.758,40.151,78.289,39.686,77.721,39.686z"/>
	<path fill="#474747" d="M77.721,48.447c-0.568,0-1.034,0.465-1.034,1.033v2.608c0,0.572,0.466,1.033,1.037,1.033
		c0.565,0,1.034-0.461,1.034-1.033V49.48C78.758,48.912,78.289,48.447,77.721,48.447z"/>
</g>
</svg>
